<?xml version="1.0" encoding="UTF-8" standalone="no"?>
<!-- Created with Inkscape (http://www.inkscape.org/) -->

<svg
   xmlns:dc="http://purl.org/dc/elements/1.1/"
   xmlns:cc="http://creativecommons.org/ns#"
   xmlns:rdf="http://www.w3.org/1999/02/22-rdf-syntax-ns#"
   xmlns:svg="http://www.w3.org/2000/svg"
   xmlns="http://www.w3.org/2000/svg"
   version="1.1"
   width="469.18124"
   height="184.38251"
   id="svg3004"
   xml:space="preserve"><metadata
     id="metadata3010"><rdf:RDF><cc:Work
         rdf:about=""><dc:format>image/svg+xml</dc:format><dc:type
           rdf:resource="http://purl.org/dc/dcmitype/StillImage" /><dc:title></dc:title></cc:Work></rdf:RDF></metadata><defs
     id="defs3008"><clipPath
       id="clipPath3020"><path
         d="M 0,1471.86 0,0 l 3750.25,0 0,1471.86 -3750.25,0 z"
         id="path3022" /></clipPath></defs><g
     transform="matrix(1.25,0,0,-1.25,0.2,184.1825)"
     id="g3012"><g
       transform="scale(0.1,0.1)"
       id="g3014"><g
         id="g3016"><g
           clip-path="url(#clipPath3020)"
           id="g3018"><g
             id="g3056"><path
               d="m 1778.82,1034.61 c -88.71,0 -114.24,-55.758 -114.24,-170.016 0,-127.676 26.17,-181.426 114.24,-181.426 88.71,0 116.23,54.434 116.23,181.426 0,114.258 -26.87,170.016 -116.23,170.016 z m 0,-428.044 c -167.99,0 -205.63,114.903 -205.63,258.028 0,129.023 38.28,247.306 205.63,247.306 167.35,0 207.66,-118.283 207.66,-247.306 0,-143.125 -40.31,-258.028 -207.66,-258.028"
               id="path3024"
               style="fill:#ea212d;fill-opacity:1;fill-rule:nonzero;stroke:none" /><path
               d="m 2197.07,1024.55 -73.93,0 0,-162.632 73.93,0 c 60.48,0 88.69,30.254 88.69,85.371 0,51.719 -29.55,77.261 -88.69,77.261 z m 0,-239.273 -78.64,0 c 1.33,-4.687 4.71,-12.754 4.71,-17.441 l 0,-151.191 -90.06,0 0,484.495 163.99,0 c 123.67,0 180.09,-65.86 180.09,-153.851 0,-87.422 -55.09,-162.012 -180.09,-162.012"
               id="path3026"
               style="fill:#ea212d;fill-opacity:1;fill-rule:nonzero;stroke:none" /><path
               d="m 2415.33,616.645 0,484.495 322.58,0 0,-75.28 -232.52,0 0,-116.247 212.34,0 -22.21,-75.254 -192.83,0 c 2.01,-4.687 2.7,-10.058 2.7,-12.812 l 0,-129.629 233.14,0 0,-75.273 -323.2,0"
               id="path3028"
               style="fill:#ea212d;fill-opacity:1;fill-rule:nonzero;stroke:none" /><path
               d="m 2953.28,1025.43 -74.61,0 0,-147.164 74.61,0 c 63.16,0 88,28.261 88,72.578 0,48.418 -26.87,74.586 -88,74.586 z m 99.43,-409.235 -111.52,170.684 c -3.4,4.726 -4.73,10.742 -6.1,16.191 l -56.42,0 0,-186.875 -90.02,0 0,484.515 164.63,0 c 122.97,0 179.37,-60.49 179.37,-149.866 0,-65.84 -32.24,-114.239 -100.78,-135.742 l 129.04,-198.907 -108.2,0"
               id="path3030"
               style="fill:#ea212d;fill-opacity:1;fill-rule:nonzero;stroke:none" /><path
               d="m 3404,958.871 c -4.69,12.813 -8.69,29.57 -10.04,38.34 -1.35,-9.414 -5.41,-26.231 -9.41,-38.34 l -49.73,-144.473 118.28,0 -49.1,144.473 z m 116.95,-342.676 -41.68,122.95 -169.96,0 -42.34,-122.95 -93.42,0 175.37,484.515 92.05,0 174.75,-484.515 -94.77,0"
               id="path3032"
               style="fill:#ea212d;fill-opacity:1;fill-rule:nonzero;stroke:none" /><path
               d="m 1705.05,133.75 c -49.51,0 -93.15,18.68 -113.36,62.289 l 47.38,17.031 c 12.76,-23.98 35.06,-34.609 65.98,-34.609 38.3,0 63.85,13.34 63.85,44.711 0,19.648 -10.65,31.949 -31.94,35.637 l -69.72,12.211 c -43.6,7.5 -69.71,33.589 -69.71,80.902 0,52.207 41.54,83.59 111.76,83.59 52.15,0 88.86,-18.102 108.04,-52.692 l -43.1,-21.898 c -12.25,18.187 -30.88,29.398 -64.42,29.398 -36.17,0 -57.44,-11.738 -57.44,-38.398 0,-15.434 5.88,-27.66 28.21,-31.391 l 66.99,-11.109 c 42.09,-6.953 77.21,-30.391 77.21,-81.473 0,-68.648 -56.41,-94.199 -119.73,-94.199"
               id="path3034"
               style="fill:#918f90;fill-opacity:1;fill-rule:nonzero;stroke:none" /><path
               d="m 1974.72,390.32 c -53.28,0 -75.08,-26.16 -75.08,-105.41 0,-79.281 21.8,-105.941 75.08,-105.941 53.17,0 74.44,26.66 74.44,105.941 0,79.25 -21.27,105.41 -74.44,105.41 z m 0,-256.57 c -96.37,0 -130.94,57.48 -130.94,151.16 0,93.672 34.57,150.602 130.94,150.602 96.25,0 131.41,-56.93 131.41,-150.602 0,-93.68 -35.16,-151.16 -131.41,-151.16"
               id="path3036"
               style="fill:#918f90;fill-opacity:1;fill-rule:nonzero;stroke:none" /><path
               d="m 2286.71,509.164 c -8.8,1.406 -16.77,1.934 -26.07,1.934 -29.3,0 -49.51,-13.399 -49.51,-56.469 l 0,-27.09 72.58,0 -10.59,-46.32 -61.99,0 0,-239.5 -55.84,0 0,219.832 c 0,5.84 2.63,12.219 5.35,19.668 l -49.2,0 0,46.32 43.85,0 0,27.09 c 0,80.883 50.04,101.683 105.94,101.683 12.34,0 24.47,-1.699 36.48,-3.925 l -11,-43.223"
               id="path3038"
               style="fill:#918f90;fill-opacity:1;fill-rule:nonzero;stroke:none" /><path
               d="m 2435.05,133.75 c -45.82,0 -88.88,18.109 -88.88,80.922 l 0,148.437 c 0,5.352 1.07,10.661 5.29,18.11 l -52.11,0 0,46.32 46.82,0 0,96.84 55.88,16.484 0,-113.324 97.03,0 -14.91,-46.32 -82.12,0 0,-166.547 c 0,-25.063 16.97,-34.633 36.73,-34.633 16.49,0 30.3,5.883 46.78,17.031 l 32.52,-32.48 c -21.87,-20.192 -53.28,-30.84 -83.03,-30.84"
               id="path3040"
               style="fill:#918f90;fill-opacity:1;fill-rule:nonzero;stroke:none" /><path
               d="m 2826.01,141.719 -50.57,0 -54.29,165.043 c -3.73,10.609 -6.88,19.648 -7.95,35.078 -1.08,-15.43 -4.79,-24.469 -8.52,-35.078 l -54.29,-165.043 -50.53,0 -91.54,285.82 54.86,0 53.69,-168.18 c 2.15,-6.429 5.35,-21.859 7.97,-51.109 3.75,29.25 5.88,38.84 9.61,50.039 l 54.26,169.25 48.45,0 54.3,-169.25 c 3.71,-11.199 5.84,-20.789 9.57,-50.039 2.66,29.25 5.8,44.68 7.95,51.109 l 53.77,168.18 54.82,0 -91.56,-285.82"
               id="path3042"
               style="fill:#918f90;fill-opacity:1;fill-rule:nonzero;stroke:none" /><path
               d="m 3106.03,271.02 c -20.72,3.261 -43.63,6.929 -66.5,6.929 -36.72,0 -63.85,-12.219 -63.85,-47.847 0,-38.872 20.74,-50.063 44.71,-50.063 34.55,0 56.91,8.563 85.64,27.152 l 0,63.829 z m 10.14,-129.301 -5.88,20.781 c -28.73,-19.18 -56.41,-28.75 -89.9,-28.75 -70.26,0 -101.16,39.91 -101.16,96.352 0,73.929 54.85,91.507 109.14,91.507 25.51,0 54.24,-3.711 77.66,-9.07 l 0,36.742 c 0,27.168 -14.34,41.039 -52.68,41.039 -31.95,0 -58.53,-7.5 -77.14,-34.629 l -42.05,24.489 c 24.45,42.011 70.78,55.332 120.27,55.332 91.5,0 107.48,-45.192 107.48,-86.762 l 0,-207.031 -45.74,0"
               id="path3044"
               style="fill:#918f90;fill-opacity:1;fill-rule:nonzero;stroke:none" /><path
               d="m 3319.39,387.621 c -16.52,0 -33.03,-3.242 -45.25,-13.32 l -18.62,-15.43 0,-217.152 -55.92,0 0,285.82 45.75,0 6.97,-27.109 19.67,16.449 c 17.03,14.351 35.64,18.633 56.38,18.633 9.07,0 17.6,-1.071 26.63,-2.192 l 0,-48.941 c -11.16,1.641 -23.38,3.242 -35.61,3.242"
               id="path3046"
               style="fill:#918f90;fill-opacity:1;fill-rule:nonzero;stroke:none" /><path
               d="m 3493.69,389.18 c -51.02,0 -74.48,-18.078 -78.21,-76.641 l 146.33,0 c -1.07,44.199 -20.21,76.641 -68.12,76.641 z M 3415,267.391 c 1.03,-60.2 20.68,-87.352 78.69,-87.352 37.3,0 61.25,11.762 76.64,41.57 l 47.36,-18.168 c -23.46,-47.851 -60.12,-69.691 -124,-69.691 -93.09,0 -134.59,47.371 -134.59,151.16 0,93.672 31.91,150.602 134.59,150.602 110.19,0 127.16,-87.832 127.16,-150.602 l 0,-17.519 -205.85,0"
               id="path3048"
               style="fill:#918f90;fill-opacity:1;fill-rule:nonzero;stroke:none" /><path
               d="m 682.773,1341.84 c 219.715,0 264.407,-306.6 264.407,-585 0,-257.891 -24.856,-603.141 -261.711,-603.141 -236.864,0 -267.489,348.629 -267.489,606.5 0,278.381 45.04,581.641 264.793,581.641 z m 391.767,14.32 c -107.841,74.55 -241.259,115.7 -391.747,115.7 -137.637,0 -260.984,-34.4 -363.555,-97.27 C 121.648,1254.75 0,1030.41 0,742.953 0,354.129 272.988,0 682.551,0 c 409.669,0 682.609,354.129 682.609,742.953 0,273.317 -109.95,489.567 -290.62,613.207"
               id="path3050"
               style="fill:#ea212d;fill-opacity:1;fill-rule:nonzero;stroke:none" /><path
               d="m 3654.25,1089.77 0,-59.47 -13.18,0 0,59.47 -20.22,0 0,10.94 53.52,0 0,-10.94 -20.12,0"
               id="path3052"
               style="fill:#ea212d;fill-opacity:1;fill-rule:nonzero;stroke:none" /><path
               d="m 3737.46,1030.3 -3.13,41.79 c -0.1,1.47 -0.19,3.32 0.2,4.79 l -13.77,-31.25 -10.94,0 -13.77,31.15 c 0.2,-1.66 0.29,-3.61 0.2,-4.98 l -3.13,-41.5 -12.79,0 5.27,70.41 11.33,0 17.38,-37.21 c 0.59,-1.27 0.88,-2.44 1.08,-3.32 0.19,1.17 0.39,2.34 0.87,3.42 l 17.39,37.11 11.33,0 5.27,-70.41 -12.79,0"
               id="path3054"
               style="fill:#ea212d;fill-opacity:1;fill-rule:nonzero;stroke:none" /></g></g></g></g></g></svg>