<svg id="Ebene_1" data-name="Ebene 1" xmlns="http://www.w3.org/2000/svg" viewBox="0 0 432.89 67.52"><defs><style>.cls-1{fill:#042c3a;}.cls-2{fill:#fff;fill-opacity:0;}.cls-3{fill:#00b0ff;}</style></defs><title>SEERENE_Logo</title><path class="cls-1" d="M469.82,428.66h36.08c.08-15.19-10.58-24.33-21.66-24.33-11.91,0-21.58,10.13-21.58,22.5a21.93,21.93,0,0,0,22,22.33c9.91,0,17.25-5.15,20.25-14.28h-7.5c-2.33,5-6.67,7.89-12.75,7.89-7.08,0-13.91-5.23-14.83-14.11Zm.42-6.31c1.83-7.31,8.08-11.62,14-11.62,6.25,0,12.08,4.65,13.83,11.62Zm-28.41,25.82h7V422.43c0-10.63-6-18.1-16.5-18.1a15.83,15.83,0,0,0-12.5,5.73v-4.65H413v42.76h7.08V422a10.93,10.93,0,0,1,11.25-11.21c6.83,0,10.5,4.81,10.5,11.37v26Zm-78.57-19.51h36.08c.08-15.19-10.58-24.33-21.66-24.33-11.91,0-21.58,10.13-21.58,22.5a21.93,21.93,0,0,0,22,22.33c9.92,0,17.25-5.15,20.25-14.28h-7.5c-2.33,5-6.66,7.89-12.75,7.89-7.08,0-13.92-5.23-14.83-14.11Zm.42-6.31c1.83-7.31,8.08-11.62,14-11.62,6.25,0,12.08,4.65,13.83,11.62Zm-16.09-11v-7c-4.92-.58-10.75,1.25-14,5.81v-4.82h-6.83v42.76h7.08V423.43c0-8.55,6.33-12.45,13.75-12ZM277,428.66h36.08c.08-15.19-10.58-24.33-21.66-24.33-11.92,0-21.58,10.13-21.58,22.5a21.93,21.93,0,0,0,22,22.33c9.92,0,17.25-5.15,20.25-14.28h-7.5c-2.33,5-6.67,7.89-12.75,7.89-7.08,0-13.91-5.23-14.83-14.11Zm.42-6.31c1.83-7.31,8.08-11.62,14-11.62,6.25,0,12.08,4.65,13.83,11.62Zm-54.16,6.31h36.08c.08-15.19-10.58-24.33-21.66-24.33-11.91,0-21.58,10.13-21.58,22.5a21.92,21.92,0,0,0,22,22.33c9.91,0,17.25-5.15,20.25-14.28h-7.5c-2.33,5-6.67,7.89-12.75,7.89-7.08,0-13.91-5.23-14.83-14.11Zm.42-6.31c1.83-7.31,8.08-11.62,14-11.62,6.25,0,12.08,4.65,13.83,11.62ZM177,416.79c0-3.32,4.08-6,9.75-6,5.25,0,9.33,2.32,10.33,6.89h7.16c-.92-8.39-7.58-13.37-17.5-13.37-11.5,0-16.83,6.56-16.83,12.7,0,8.05,6.33,10.54,16.75,12s11.66,3.65,11.66,6.64c0,3.74-4.08,7-10.75,7-6.17,0-11.08-3.07-12-8.05h-7.17c1.17,9,8.75,14.61,19.16,14.61,10.25,0,17.58-5.4,17.58-13.95,0-9.71-7.83-11.54-17.33-13-8.42-1.33-10.83-2.41-10.83-5.48Z" transform="translate(-73 -387.89)"/><path class="cls-2" d="M80.42,425.2a5.1,5.1,0,0,1,0-8.71A5.94,5.94,0,0,1,78,412.14c0-6.48,15.19-11.73,33.92-11.73s33.92,5.25,33.92,11.73a5.94,5.94,0,0,1-2.44,4.35,5.1,5.1,0,0,1,0,8.71,5.94,5.94,0,0,1,2.44,4.35c0,2.19-1.77,4.23-4.79,6,3,1.75,4.79,3.8,4.79,6,0,6.48-15.19,11.73-33.92,11.73S78,448,78,441.52c0-2.19,1.77-4.23,4.79-6-3-1.75-4.79-3.8-4.79-6a5.94,5.94,0,0,1,2.44-4.35Z" transform="translate(-73 -387.89)"/><path class="cls-3" d="M149.74,426.5c-.2-22.78-17.54-38.79-38.71-38.61s-38.2,16.49-38,39.28c0,0,0,16.1,0,16.11.08,9.07,19.63,12.29,38.62,12.13,18.27-.16,36.73-3.36,38-11.78.07.08.09-17.12.09-17.12Zm-7.08,16V443s0,0,0,0,0,.17,0,.17c0,2.29-14.07,5.43-31.42,5.43s-31.43-3.14-31.43-5.43c0,0,0-.39,0-.73s0-.73,0-.74c0-.87,2-1.85,5.45-2.74v-18.1l7.08-2v18.67c1.36-.2,2.82-.39,4.34-.55V405.37l6.77-2v33.1c1.49-.08,3-.14,4.58-.17V419.15l6.86-2v19.15c1.52,0,3,.1,4.47.18v-22.7l6.86-2V437.1c1.53.17,3,.36,4.36.57V424.37l6.86-2V439c3.3.88,5.22,1.84,5.22,2.69,0,0,0,.07,0,.17s0,0,0,0v.53Z" transform="translate(-73 -387.89)"/></svg>