<?xml version="1.0" encoding="UTF-8"?>
<svg xmlns="http://www.w3.org/2000/svg" id="Warstwa_1" viewBox="0 0 716 159">
  <style>.st0{fill:#323131}.st1{fill:#9f0060}.st2{opacity:.61;enable-background:new}</style>
  <path class="st0" d="M0 73.1l7.8-11.5c4.1 4.1 10.5 7.6 18.4 7.6 5 0 8.1-1.7 8.1-4.6 0-7.6-32.4-1.3-32.4-23.4C1.9 31.6 10 23 24.7 23c9.2 0 17.2 2.8 23.3 8l-8.1 11.1c-4.8-4-11.1-6-16.8-6-4.3 0-6.2 1.5-6.2 4 0 7.1 32.4 1.7 32.4 23 0 11.5-8.5 19.2-23.9 19.2-11.6 0-19.6-3.7-25.4-9.2M57.5 81.2V23.9h28.7c12.9 0 20 8.7 20 19.1 0 10.3-7.1 19-20 19H72.3v19.3H57.5v-.1zM91.2 43c0-4-3.2-6.2-7.1-6.2H72.3v12.3H84c4 0 7.2-2.3 7.2-6.1M114.1 23.9h14.8v57.4h-14.8zM140.5 81.2V23.9h24.1c18.1 0 31 10.8 31 28.6s-13 28.7-31 28.7h-24.1zm40-28.7c0-8.9-5.3-15.7-15.8-15.7h-9.4v31.6h9.3c10.1-.1 15.9-7.4 15.9-15.9M204.3 81.2V23.9h42.1v12.9h-27.3v8.9h26.7v12.9h-26.7v9.7h27.3v12.9zM288.3 81.2l-9.6-19.3h-7.6v19.3h-14.8V23.9H285c12.7 0 20 8.4 20 19.1 0 10-6 15.3-11.4 17.2l11.7 21.1-17-.1zm1.6-38.3c0-4-3.2-6.1-7.1-6.1h-11.7v12.3h11.7c3.9 0 7.1-2.2 7.1-6.2M318.9 50.3l-5.5-4.4c2.8-1.4 6.4-5.1 7.3-8.3-.3.2-1.2.3-2 .3-3.7 0-6.7-2.8-6.7-7.1 0-4.4 3.6-7.9 7.9-7.9 4.6 0 8.8 3.6 8.8 10 0 7-3.8 13.2-9.8 17.4M333.9 73.1l7.8-11.5c4.1 4.1 10.5 7.6 18.4 7.6 5 0 8.1-1.7 8.1-4.6 0-7.6-32.4-1.3-32.4-23.4 0-9.6 8.1-18.2 22.8-18.2 9.2 0 17.2 2.8 23.3 8l-8.1 11.1c-4.8-4-11.1-6-16.8-6-4.3 0-6.2 1.5-6.2 4 0 7.1 32.4 1.7 32.4 23 0 11.5-8.5 19.2-23.9 19.2-11.5 0-19.6-3.7-25.4-9.2M436.9 81.2L424.2 35l-12.6 46.2h-7.8l-16.3-57.3h7.9l12.7 47.8 13.2-47.8h5.9l13.2 47.8L453 23.9h8l-16.4 57.3zM470.2 81.2V23.9h37.6v6.3h-30.4v18.5h29.8v6.4h-29.8v19.8h30.4v6.3zM520.5 81.2V23.9H546c10 0 16.1 6 16.1 14.6 0 7.2-4.8 12-10.1 13.2 6.1.9 11.2 7.2 11.2 14.1 0 9.2-6.1 15.5-16.6 15.5h-26.1v-.1zm34.2-41.7c0-5.2-3.4-9.3-9.9-9.3h-17.2v18.5h17.2c6.5 0 9.9-3.9 9.9-9.2m1.1 25.5c0-5.2-3.6-9.9-10.6-9.9h-17.6v19.8h17.6c6.7 0 10.6-3.8 10.6-9.9"></path>
  <path d="M163.8 127.6v-20h8.9c3.5 0 5.6 2.1 5.6 5.1 0 2.5-1.7 4.2-3.5 4.6 2.1.3 3.9 2.5 3.9 4.9 0 3.2-2.1 5.4-5.8 5.4h-9.1zm12-14.5c0-1.8-1.2-3.2-3.5-3.2h-6v6.4h6c2.3 0 3.5-1.4 3.5-3.2m.4 8.8c0-1.8-1.3-3.4-3.7-3.4h-6.2v6.9h6.2c2.3 0 3.7-1.3 3.7-3.5M183.3 127.6v-20h2.5v17.8h9.3v2.2zM197.6 117.6c0-5.9 4-10.3 9.9-10.3s10 4.4 10 10.3-4 10.4-10 10.4-9.9-4.5-9.9-10.4m17.3 0c0-4.7-2.9-8.1-7.4-8.1s-7.3 3.4-7.3 8.1 2.8 8.1 7.3 8.1 7.4-3.4 7.4-8.1M221.5 117.6c0-6.2 4.6-10.3 10.3-10.3 3.6 0 6 1.6 7.8 3.7l-2 1.3c-1.3-1.6-3.4-2.8-5.8-2.8-4.4 0-7.7 3.3-7.7 8.1 0 4.7 3.3 8.1 7.7 8.1 2.4 0 4.4-1.1 5.4-2.2v-4h-6.9v-2.2h9.4v7.2c-1.9 2.1-4.6 3.5-7.9 3.5-5.7 0-10.3-4.2-10.3-10.4M253.4 127.6v-20h8.9c3.5 0 5.6 2.1 5.6 5.1 0 2.5-1.7 4.2-3.5 4.6 2.1.3 3.9 2.5 3.9 4.9 0 3.2-2.1 5.4-5.8 5.4h-9.1zm11.9-14.5c0-1.8-1.2-3.2-3.5-3.2h-6v6.4h6c2.3 0 3.5-1.4 3.5-3.2m.4 8.8c0-1.8-1.3-3.4-3.7-3.4h-6.2v6.9h6.2c2.3 0 3.7-1.3 3.7-3.5M272.9 127.6v-20h2.5v17.8h9.3v2.2zM289 107.6h2.5v20H289zM295.9 124.8l1.5-1.9c1.3 1.5 3.4 2.9 6.3 2.9 3.6 0 4.7-1.9 4.7-3.5 0-5.2-11.8-2.3-11.8-9.4 0-3.3 2.9-5.6 6.9-5.6 3 0 5.4 1.1 7.1 2.8l-1.5 1.8c-1.5-1.7-3.6-2.4-5.8-2.4-2.4 0-4.1 1.3-4.1 3.2 0 4.5 11.9 1.9 11.9 9.4 0 2.9-2 5.9-7.4 5.9-3.6 0-6.2-1.4-7.8-3.2M327.7 127.6l-7.6-9-2 2.3v6.7h-2.5v-20h2.5v10.3l8.9-10.3h3.1l-8.4 9.5 9.1 10.5zM332.2 117.6c0-5.9 4-10.3 9.9-10.3s10 4.4 10 10.3-4 10.4-10 10.4-9.9-4.5-9.9-10.4m17.3 0c0-4.7-2.9-8.1-7.4-8.1s-7.3 3.4-7.3 8.1 2.8 8.1 7.3 8.1 7.4-3.4 7.4-8.1M370.6 127.6v-17.8h-6.3v-2.2h15.1v2.2h-6.3v17.8zM383.7 127.6v-20h13.1v2.2h-10.6v6.5h10.4v2.2h-10.4v6.9h10.6v2.2zM400.9 117.6c0-6.1 4.5-10.3 10.3-10.3 3.5 0 6 1.7 7.6 4l-2.1 1.2c-1.1-1.7-3.2-2.9-5.5-2.9-4.4 0-7.7 3.3-7.7 8.1 0 4.7 3.3 8.1 7.7 8.1 2.3 0 4.4-1.2 5.5-2.9l2.1 1.1c-1.7 2.3-4.1 4-7.6 4-5.8 0-10.3-4.2-10.3-10.4M437.2 127.6v-9.2h-11.7v9.2H423v-20h2.5v8.6h11.7v-8.6h2.4v20zM459.4 127.6l-11.6-16v16h-2.5v-20h2.5l11.5 15.6v-15.6h2.5v20zM466.7 117.6c0-5.9 4-10.3 9.9-10.3s10 4.4 10 10.3-4 10.4-10 10.4c-5.9 0-9.9-4.5-9.9-10.4m17.3 0c0-4.7-2.9-8.1-7.4-8.1s-7.3 3.4-7.3 8.1 2.8 8.1 7.3 8.1 7.4-3.4 7.4-8.1M491.1 127.6v-20h2.5v17.8h9.2v2.2zM505.3 117.6c0-5.9 4-10.3 9.9-10.3s10 4.4 10 10.3-4 10.4-10 10.4c-5.9 0-9.9-4.5-9.9-10.4m17.3 0c0-4.7-2.9-8.1-7.4-8.1s-7.3 3.4-7.3 8.1 2.8 8.1 7.3 8.1 7.4-3.4 7.4-8.1M529.2 117.6c0-6.2 4.6-10.3 10.3-10.3 3.6 0 6 1.6 7.8 3.7l-2 1.3c-1.3-1.6-3.4-2.8-5.8-2.8-4.4 0-7.7 3.3-7.7 8.1 0 4.7 3.3 8.1 7.7 8.1 2.4 0 4.4-1.1 5.4-2.2v-4H538v-2.2h9.4v7.2c-1.9 2.1-4.6 3.5-7.9 3.5-5.7 0-10.3-4.2-10.3-10.4M552.4 107.6h2.5v20h-2.5zM560.5 107.6h2.5v20h-2.5z"></path>
  <path class="st1" d="M588 0v128h24v31l31-31h39l-24-24h-46V24h80v80h-10v24h34V0z"></path>
  <path class="st2" d="M643 128l-31 14.3V128z"></path>
</svg>
