<?xml version="1.0" encoding="UTF-8" standalone="no"?>
<!-- Created with Inkscape (http://www.inkscape.org/) -->
<svg data-v-213e5e4e="" id="pitchup-logo" xmlns="http://www.w3.org/2000/svg" width="100" height="100" viewBox="0 0 150 131" stroke-linejoin="round"><g data-v-213e5e4e=""><g data-v-213e5e4e="" id="wordmark"><path data-v-213e5e4e="" d="M77.4 89.7c-1.7-4.9-3.9-16-5.6-20.9 -1.8 4.8-3.4 16.2-5.2 20.9 0 0 6.3-0.2 10.7 0Z" class="a"></path> <path data-v-213e5e4e="" d="M68.3 104.8c-2.7 0.1-4.5 2.2-4.3 5.7 0.2 3.9 2.9 6.6 7.1 6.5 1.8 0 3.7-0.4 5-1.1 0.5 0.6 0.9 1.8 0.9 2.5 0 1.4-3.4 3.2-7.1 3.3 -6.3 0.2-11.4-4-11.9-10.7 -0.5-6.1 3.9-10.6 10.3-10.8 4.5-0.1 7.7 1.6 9.2 4.1 0.3 0.4 0.3 0.7 0.3 1.2 0 0.6-0.4 1-1.1 1.4 -1.1 0.6-2.7 1-4.2 1.1 -0.9-2.2-2.4-3.2-4.2-3.1Z" class="a"></path> <path data-v-213e5e4e="" d="M89.2 108.8c2.1 0.1 4.1 0.2 6.2 0.4 0.2-2.7 0.4-5.3 0.6-8 1.7 0.1 3.4 0.3 5.1 0.4 0.8 0.1 1.2 0.4 1.1 1 -0.6 6.6-1.3 13.2-1.9 19.8 -1.6-0.2-3.1-0.3-4.7-0.4 -0.8-0.1-1.1-0.4-1.1-1 0.2-2.4 0.4-4.8 0.5-7.2 -2-0.1-4.1-0.3-6.1-0.4 -0.1 2.7-0.3 5.4-0.4 8.1 -1.6-0.1-3.1-0.1-4.7-0.2 -0.8 0-1.1-0.4-1.1-1 0.2-6.6 0.4-13.1 0.5-19.7 1.2-0.2 2.7-0.4 4.7-0.3 1.1 0 1.6 0.5 1.6 1.3 -0.1 2.4-0.2 4.7-0.4 7.1Z" class="a"></path> <path data-v-213e5e4e="" d="M52.4 101.5c0.6-0.1 1 0.3 1.1 1 0.1 1.1 0.2 2.3 0.3 3.4 -2 0.2-4.2 0.4-6.1 0.6 0.6 5.2 1.1 10.8 1.7 16.1 -1.5 0.2-3.1 0.3-4.6 0.5 -0.8 0.1-1.2-0.2-1.2-0.8 -0.6-4.9-1.3-10.2-1.9-15.1 -1.6 0.2-3.4 0.4-5 0.7 -0.7 0.1-1.2-0.2-1.3-1 -0.2-1-0.2-2.3-0.1-3.3 5.6-0.9 11.6-1.6 17.3-2.1Z" class="a"></path> <path data-v-213e5e4e="" d="M8.9 119.9c0.5 0 1.1-0.1 1.6-0.3 2-0.5 3.1-1.8 2.6-3.9 -0.5-2-2-2.7-4.1-2.2 -0.6 0.1-1.1 0.3-1.7 0.4 0.5 2 1 3.9 1.6 5.9Zm-2 10.9c-0.8 0.2-1.2 0-1.4-0.6 -1.8-6.3-3.7-12.7-5.5-19 2.7-0.8 5.4-1.5 8.1-2.2 5.8-1.5 10 0.6 11.1 5.5 1 4.6-1.9 8.2-6.6 9.4 -0.7 0.2-1.6 0.3-2.5 0.3 0.5 1.8 1 3.6 1.4 5.4 -1.5 0.4-3 0.8-4.6 1.3Z" class="a"></path> <path data-v-213e5e4e="" d="M32.8 124.9c-1.5 0.3-3 0.5-4.5 0.8 -0.8 0.1-1.2-0.1-1.3-0.7 -1.3-6.3-2.6-13-3.8-19.3 1.1-0.5 2.5-1 4.4-1.3 1.1-0.2 1.7 0.1 1.8 0.9 1.1 6.4 2.3 13.1 3.4 19.5Z" class="a"></path> <path data-v-213e5e4e="" d="M138 118.7c0.4 0.2 1 0.4 1.5 0.5 2 0.5 3.6-0.1 4.2-2.1 0.5-2-0.5-3.4-2.5-3.9 -0.6-0.1-1.1-0.3-1.7-0.4 -0.5 2-1 4-1.5 5.9Zm-7 8.7c-0.8-0.2-1.1-0.6-0.9-1.1 1.4-6.5 2.8-12.9 4.3-19.4 2.7 0.6 5.4 1.2 8.1 1.9 5.8 1.5 8.5 5.4 7.1 10.1 -1.3 4.5-5.6 6.3-10.3 5.1 -0.7-0.2-1.6-0.5-2.4-0.9 -0.4 1.8-0.9 3.6-1.3 5.4 -1.5-0.4-3.1-0.7-4.6-1.1Z" class="a"></path> <path data-v-213e5e4e="" d="M108.8 102.6c1.3-0.1 2.7-0.1 4.7 0.1 1.1 0.2 1.6 0.6 1.5 1.4 -0.6 3.8-1.1 7.7-1.7 11.5 -0.4 2.6 0.7 4.1 2.5 4.3 1.9 0.3 3.3-0.8 3.7-3.4 0.7-4.1 1.4-8.3 2.1-12.4 1.7 0.3 3.3 0.6 5 0.9 0.8 0.2 1.2 0.6 1 1.1 -0.7 3.7-1.4 7.4-2.1 11 -1.1 5.5-5.1 8.1-10.5 7.2 -5.3-0.8-8.4-4.5-7.7-10.1 0.5-4 1-7.9 1.4-11.9Z" class="a"></path> <path data-v-213e5e4e="" d="M138 118.7c0.4 0.2 1 0.4 1.5 0.5 2 0.5 3.6-0.1 4.2-2.1 0.5-2-0.5-3.4-2.5-3.9 -0.6-0.1-1.1-0.3-1.7-0.4 -0.5 2-1 4-1.5 5.9Zm-7 8.7c-0.8-0.2-1.1-0.6-0.9-1.1 1.4-6.5 2.8-12.9 4.3-19.4 2.7 0.6 5.4 1.2 8.1 1.9 5.8 1.5 8.5 5.4 7.1 10.1 -1.3 4.5-5.6 6.3-10.3 5.1 -0.7-0.2-1.6-0.5-2.4-0.9 -0.4 1.8-0.9 3.6-1.3 5.4 -1.5-0.4-3.1-0.7-4.6-1.1Z" class="a"></path></g> <g data-v-213e5e4e="" id="logotype"><path data-v-213e5e4e="" id="sun" d="M42.6 28c1.4 0.5 2.8 0.6 4.3 0.5 4.6-0.2 9.1-2.4 11.9-6.1 2.8-3.6 3.8-8.7 2.2-13.1 -0.6-1.6-1.5-3-2.4-4.5 -0.9-1.4-1.8-2.8-3.2-3.6 -1.5-0.9-3.3-1.2-5.1-1.3 -2.9-0.2-6.1 0-8.4 1.7 -1 0.8-1.8 1.8-2.6 2.8 -1.9 2.5-3.8 5.3-4.7 8.3 -0.9 3.1-0.8 6.6 0.9 9.3 0.8 1.2 1.9 2.2 3 3.2 1.2 1.1 2.5 2.1 4.1 2.6Z" fill="url(#_Radial3)"></path> <path data-v-213e5e4e="" id="mr" d="M129.2 73c-0.7-1.7-1.3-1.5-2.3-0.7 -1 0.9-1.7-0.5-1.7-0.5 0 0-10.8-24.1-11.8-26.1 -0.9-2.1-1.4-1-1.4-1 0 0-0.8 0.9-1.7 1.9 -0.9 1-1.4 0-1.4 0 0 0-4.7-9.3-5.6-11.1 -0.9-1.8-1.7 0-1.7 0l-5.8 10.7 -13 15.6 12.3 19.2c1.9-1.9 5.4-3.9 11.5-5.6 0 0 13.1-3.4-6.4-6.5 -0.3 0-0.5-0.1-0.8-0.1 0.9-0.7 1-1.2 1-1.2 3.8 0.7 7.6 1.6 11.2 2.7 9.9 3.1 3.3 6.3 1.1 8.3 -7.2 6.3 1.3 11.2 18.7 12l4.3 0c0 0-6-16-6.6-17.7Z" fill="url(#_Linear1)"></path> <path data-v-213e5e4e="" id="ml" d="M45.1 90c0.9-1.5 12.8-21.1 12.8-21.1 0 0-7.8-18.8-8.1-19.5 -0.9-1.9-4-3.6-5.1-4.3 -4.8-3.2-6.6-10.6-7.7-13.5 -0.5-1.5-1.2-3.1-1.5-3.1 -0.3 0-0.5 0.5-0.5 0.5 -0.6 1.4-1 3.4-1 3.4 0 0-2.6 10.9-7.1 14.6 -0.9 0.8-3.1 2.4-4 3.7 -0.9 1.3-1.3 2.9-0.1 4.1 0.5 0.5 0.9 0.7 1.6 0.7 1.4-0.1 5-2.2 5.9-3.1 -0.9 1.7-2.2 3-3.7 4.2 -0.7 0.6-4.2 3.4-5.1 4.2 -0.9 0.8-3.2 2.8-2.4 4.8 0.3 0.7 0.9 1.3 1.6 1.6 0.8 0.3 1.9 0.6 3.1 0.2 2.3-0.7 4.2-2.6 6-4.6 -0.5 0.9-0.8 1.9-1.5 2.8 -1.3 1.5-4.4 3.5-6 4.4 -2.3 1.4-5.8 3.3-4.6 6.6 1 2.9 2.9 2.8 4.6 2.4 2.4-0.5 4.1-2.6 5.6-4.1 0.5-0.5 1.3-1 1.7-1.5 -0.5 1.1-1.2 2.3-2 3.3 -1.8 2.1-4.5 3.3-7.6 4.9 -0.2 0.1-2.4 1.4-3.3 2.1 -2.8 2.1-2.7 4.8-2.4 5.6 0.7 1.9 3.2 3.5 6.3 3.6 7 0.2 15.4-7 16.2-7.9 1.4 2.1 5.7 4.2 8.2 5.2Z" fill="url(#_Radial2)"></path> <path data-v-213e5e4e="" d="M98.8 83.2c2-2.6-0.6-6.7-2.6-8.8 -1.1-1.3-4.2-2.7-6-3.9 -0.4-0.3-1.2-0.5-2.2-0.8l0.3 0.4 7.8 12.4c0 0.1 0.1 0.2 0.1 0.2l0 0 0 0c0.1 0.2 0.2 0.4 0.3 0.5l0 0c0 0.1 0.3 0.5 0.7 1.2 0.6-0.3 1.1-0.7 1.5-1.2Z" fill="#62b346"></path> <path data-v-213e5e4e="" d="M48 85.2c2.1-3.5 5-8.2 7.9-13 -4.7 2.2-12.2 6.2-11.3 10.5 0.3 1.4 1.7 2.1 3.5 2.5Z" fill="#57ad47"></path> <path data-v-213e5e4e="" id="m" d="M56.9 70.5c0.9-1.5 1.8-3.1 2.7-4.5 5.8-9.7 12.1-25.1 12.1-25.1l8.7 16.7 6.9 10.7c1.6 0.1 3.2 0.2 4.9 0.3 2.7 0.1 8.1-0.1 8.8-3.6 0.6-3.1-3.2-5.6-5.6-6.6 -2.7-1.1-5.4-1.9-8.2-2.2 0 0 7.4-2.3 9.6-3.4 3.7-1.8 1.7-5.7-1.2-7 -2.5-1.1-5.3-1-7.9-0.7 -1.6 0.2-3.1 0.7-4.7 1 4.4-2.3 10.1-3.6 13.7-7.2 1.6-1.6 2.9-4 2.8-6.2 0-2.2-1.7-3.6-3.8-3.9 -1.6-0.3-2.9-0.5-4.9 0.4 -2.1 0.9-5.2 2-7 3.7 2.5-2.4 4.8-5.1 6.4-8.2 1.2-2.2 2.4-5.1 2.1-7.6 -0.1-0.8-0.4-1.6-0.9-2.2 -0.6-0.7-1.5-1-2.4-1.1 -1.8-0.1-3.6 1-4.8 2.3 -1.9 1.9-3.3 4.6-4.4 7 -0.6 1.4-1.7 3.2-1.8 4.7 0-0.1 0-0.2 0-0.4 0.3-3.1 0.4-6.3 0.5-9.5 0-2.7 0.1-5.5-0.5-8.3 -0.5-2.5-1.6-5.8-3.9-7.1 -1.5-0.9-3-0.5-4.3 0.5 -3.2 2.6-4.8 6.7-4.9 10.7 -0.1 5.5 1.8 11.4 4.4 16.3 -0.7-1.3-1.8-2.5-2.8-3.6 -1.5-1.8-3.1-3.7-5-5.2 -1.7-1.4-4.6-3.1-6.8-1.8 -1.8 1.1-1.8 3.7-1.5 5.6 0.8 4.6 6 10.7 8 12.8 -2-1.9-4.9-3.4-7.3-4.6 -2.7-1.3-6.2-2.1-8.1 0.9 -1.4 2.3-1 5.5 0.3 7.7 2.6 4.4 7.7 7.7 12.1 9.9 -2.3-0.7-4.6-1.4-6.9-2 -2.1-0.6-4.5-1-6.5 0.2 -2 1.1-2.5 3.3-1.4 5.2 2.4 4.4 8.6 6.1 13.2 6.5 -2.9 0-5.9 0-8.8 0.4 -1.7 0.2-3.5 0.2-5 1 -2.5 1.3-2.4 4.2-0.1 5.7 2.6 1.7 6.5 1.8 9.5 1.9 1.5 0 3.1 0 4.6-0.1Z" fill="url(#_Radial4)"></path> <path data-v-213e5e4e="" id="l" d="M98.1 85.5c-0.2-0.3-0.4-0.7-0.7-1.2 1.4-0.7 2-2 2.1-2.6 0.2 1.1 0 2.1-0.6 3 -0.2 0.3-0.5 0.5-0.7 0.7Z" class="b"></path> <path data-v-213e5e4e="" id="l1" d="M47.2 86.6c-1.4-0.4-2.4-1.1-2.6-2.3 -0.1-0.5-0.1-1 0-1.5 0.5 1.6 2.1 2.1 3.4 2.4 -0.3 0.5-0.8 1.4-0.8 1.4Z" class="c"></path> <path data-v-213e5e4e="" d="M41.1 66.7c0.2 0.8 0.8 1.5 1.6 2.1 2.6 1.7 6.5 1.8 9.5 1.9 1.5 0 4.6-0.1 4.6-0.1 0 0-0.3 0.6-1 1.7 -0.8 0-3.2 0.1-3.6 0.1 -3-0.1-7-0.2-9.5-1.9 -1.4-0.9-2-2.4-1.6-3.7Zm1.9-12.7c0.1 0.4 0.2 0.8 0.4 1.2 2.4 4.4 8.6 6.1 13.2 6.5 -2.2 0-4.4 0-6.6 0.2 -2.8-1-5.3-2.6-6.6-5.1 -0.5-0.9-0.6-1.9-0.4-2.8Z" class="c"></path> <path data-v-213e5e4e="" d="M101 65.1c0.1 0.5 0.4 2.2-1.3 3.6 -3 2.4-11.2 1.3-11.2 1.3l-1.1-1.7c1.6 0.1 3.2 0.2 4.9 0.3 2.7 0.1 8-0.1 8.8-3.5Zm-2.3-14.3c0.4 1.3-0.1 2.7-1.9 3.6 -1.2 0.6-4 1.6-6.3 2.3 -1.1-0.3-2.2-0.4-3.3-0.5 0 0 7.4-2.3 9.6-3.4 1.1-0.5 1.7-1.2 1.9-2Z" class="b"></path></g></g> <defs data-v-213e5e4e=""><linearGradient data-v-213e5e4e="" id="_Linear1" x1="0" y1="0" x2="1" y2="0" gradientUnits="userSpaceOnUse" gradientTransform="matrix(-14.4458,11.7179,-11.7179,-14.4458,117.918,60.5459)"><stop data-v-213e5e4e="" offset="0" stop-color="#5c8690"></stop> <stop data-v-213e5e4e="" offset="1" stop-color="#96b5ba"></stop></linearGradient> <radialGradient data-v-213e5e4e="" id="_Radial2" cx="0" cy="0" r="1" gradientUnits="userSpaceOnUse" gradientTransform="matrix(18.9226,-0.835119,1.31709,29.8435,36.9469,59.8309)"><stop data-v-213e5e4e="" offset="0" stop-color="#3b9744"></stop> <stop data-v-213e5e4e="" offset="1" stop-color="#1b7a3c"></stop></radialGradient> <radialGradient data-v-213e5e4e="" id="_Radial3" cx="0" cy="0" r="1" gradientUnits="userSpaceOnUse" gradientTransform="matrix(-7.02306,11.8877,-11.8877,-7.02306,47.9966,14.2691)"><stop data-v-213e5e4e="" offset="0" stop-color="#ffc31b"></stop> <stop data-v-213e5e4e="" offset="0.63" stop-color="#febe1b"></stop> <stop data-v-213e5e4e="" offset="0.83" stop-color="#fcb11c"></stop> <stop data-v-213e5e4e="" offset="1" stop-color="#faa21e"></stop></radialGradient> <radialGradient data-v-213e5e4e="" id="_Radial4" cx="0" cy="0" r="1" gradientUnits="userSpaceOnUse" gradientTransform="matrix(1.3522e-15,-22.0831,25.2205,1.54431e-15,71.7121,45.7713)"><stop data-v-213e5e4e="" offset="0" stop-color="#a6cd70"></stop> <stop data-v-213e5e4e="" offset="1" stop-color="#56ab46"></stop></radialGradient></defs></svg>