<svg width="270" height="131" xmlns="http://www.w3.org/2000/svg" stroke-linejoin="round">
 <defs>
  <linearGradient y2="0.67198" x2="0.39078" y1="0.46236" x1="0.66386" id="_Linear1">
   <stop stop-color="#5c8690" offset="0"/>
   <stop stop-color="#96b5ba" offset="1"/>
  </linearGradient>
  <radialGradient gradientTransform="matrix(18.92259979248047,-0.8351193070411682,1.3170900344848633,29.8435001373291,96.9468994140625,59.994117736816406)" gradientUnits="userSpaceOnUse" r="1" cy="0" cx="0" id="_Radial2">
   <stop stop-color="#3b9744" offset="0"/>
   <stop stop-color="#1b7a3c" offset="1"/>
  </radialGradient>
  <radialGradient gradientTransform="matrix(-7.023059844970703,11.887700080871582,-11.887700080871582,-7.023059844970703,107.99659729003906,14.432319641113281)" gradientUnits="userSpaceOnUse" r="1" cy="0" cx="0" id="_Radial3">
   <stop stop-color="#ffc31b" offset="0"/>
   <stop stop-color="#febe1b" offset="0.63"/>
   <stop stop-color="#fcb11c" offset="0.83"/>
   <stop stop-color="#faa21e" offset="1"/>
  </radialGradient>
  <radialGradient gradientTransform="matrix(0,-22.083099365234375,25.220500946044922,0,131.71209716796875,45.93452072143555)" gradientUnits="userSpaceOnUse" r="1" cy="0" cx="0" id="_Radial4">
   <stop stop-color="#a6cd70" offset="0"/>
   <stop stop-color="#56ab46" offset="1"/>
  </radialGradient>
 </defs>
 <g>
  <title>Layer 1</title>
  <g id="svg_1">
   <g id="wordmark">
    <path id="svg_2" class="a" d="m137.4,89.86322c-1.7,-4.9 -3.9,-16 -5.6,-20.9c-1.8,4.8 -3.4,16.2 -5.2,20.9c0,0 6.3,-0.2 10.7,0l0.1,0z"/>
    <path id="svg_3" class="a" d="m128.3,104.96322c-2.7,0.1 -4.5,2.2 -4.3,5.7c0.2,3.9 2.9,6.6 7.1,6.5c1.8,0 3.7,-0.4 5,-1.1c0.5,0.6 0.9,1.8 0.9,2.5c0,1.4 -3.4,3.2 -7.1,3.3c-6.3,0.2 -11.4,-4 -11.9,-10.7c-0.5,-6.1 3.9,-10.6 10.3,-10.8c4.5,-0.1 7.7,1.6 9.2,4.1c0.3,0.4 0.3,0.7 0.3,1.2c0,0.6 -0.4,1 -1.1,1.4c-1.1,0.6 -2.7,1 -4.2,1.1c-0.9,-2.2 -2.4,-3.2 -4.2,-3.1l0,-0.1z"/>
    <path id="svg_4" class="a" d="m149.2,108.96322c2.1,0.1 4.1,0.2 6.2,0.4c0.2,-2.7 0.4,-5.3 0.6,-8c1.7,0.1 3.4,0.3 5.1,0.4c0.8,0.1 1.2,0.4 1.1,1c-0.6,6.6 -1.3,13.2 -1.9,19.8c-1.6,-0.2 -3.1,-0.3 -4.7,-0.4c-0.8,-0.1 -1.1,-0.4 -1.1,-1c0.2,-2.4 0.4,-4.8 0.5,-7.2c-2,-0.1 -4.1,-0.3 -6.1,-0.4c-0.1,2.7 -0.3,5.4 -0.4,8.1c-1.6,-0.1 -3.1,-0.1 -4.7,-0.2c-0.8,0 -1.1,-0.4 -1.1,-1c0.2,-6.6 0.4,-13.1 0.5,-19.7c1.2,-0.2 2.7,-0.4 4.7,-0.3c1.1,0 1.6,0.5 1.6,1.3c-0.1,2.4 -0.2,4.7 -0.4,7.1l0.1,0.1z"/>
    <path id="svg_5" class="a" d="m112.4,101.66322c0.6,-0.1 1,0.3 1.1,1c0.1,1.1 0.2,2.3 0.3,3.4c-2,0.2 -4.2,0.4 -6.1,0.6c0.6,5.2 1.1,10.8 1.7,16.1c-1.5,0.2 -3.1,0.3 -4.6,0.5c-0.8,0.1 -1.2,-0.2 -1.2,-0.8c-0.6,-4.9 -1.3,-10.2 -1.9,-15.1c-1.6,0.2 -3.4,0.4 -5,0.7c-0.7,0.1 -1.2,-0.2 -1.3,-1c-0.2,-1 -0.2,-2.3 -0.1,-3.3c5.6,-0.9 11.6,-1.6 17.3,-2.1l-0.2,0z"/>
    <path id="svg_6" class="a" d="m68.9,120.06322c0.5,0 1.1,-0.1 1.6,-0.3c2,-0.5 3.1,-1.8 2.6,-3.9c-0.5,-2 -2,-2.7 -4.1,-2.2c-0.6,0.1 -1.1,0.3 -1.7,0.4c0.5,2 1,3.9 1.6,5.9l0,0.1zm-2,10.9c-0.8,0.2 -1.2,0 -1.4,-0.6c-1.8,-6.3 -3.7,-12.7 -5.5,-19c2.7,-0.8 5.4,-1.5 8.1,-2.2c5.8,-1.5 10,0.6 11.1,5.5c1,4.6 -1.9,8.2 -6.6,9.4c-0.7,0.2 -1.6,0.3 -2.5,0.3c0.5,1.8 1,3.6 1.4,5.4c-1.5,0.4 -3,0.8 -4.6,1.3l0,-0.1z"/>
    <path id="svg_7" class="a" d="m92.8,125.06322c-1.5,0.3 -3,0.5 -4.5,0.8c-0.8,0.1 -1.2,-0.1 -1.3,-0.7c-1.3,-6.3 -2.6,-13 -3.8,-19.3c1.1,-0.5 2.5,-1 4.4,-1.3c1.1,-0.2 1.7,0.1 1.8,0.9c1.1,6.4 2.3,13.1 3.4,19.5l0,0.1z"/>
    <path id="svg_8" class="a" d="m198,118.86322c0.4,0.2 1,0.4 1.5,0.5c2,0.5 3.6,-0.1 4.2,-2.1c0.5,-2 -0.5,-3.4 -2.5,-3.9c-0.6,-0.1 -1.1,-0.3 -1.7,-0.4c-0.5,2 -1,4 -1.5,5.9zm-7,8.7c-0.8,-0.2 -1.1,-0.6 -0.9,-1.1c1.4,-6.5 2.8,-12.9 4.3,-19.4c2.7,0.6 5.4,1.2 8.1,1.9c5.8,1.5 8.5,5.4 7.1,10.1c-1.3,4.5 -5.6,6.3 -10.3,5.1c-0.7,-0.2 -1.6,-0.5 -2.4,-0.9c-0.4,1.8 -0.9,3.6 -1.3,5.4c-1.5,-0.4 -3.1,-0.7 -4.6,-1.1z"/>
    <path id="svg_9" class="a" d="m168.8,102.76322c1.3,-0.1 2.7,-0.1 4.7,0.1c1.1,0.2 1.6,0.6 1.5,1.4c-0.6,3.8 -1.1,7.7 -1.7,11.5c-0.4,2.6 0.7,4.1 2.5,4.3c1.9,0.3 3.3,-0.8 3.7,-3.4c0.7,-4.1 1.4,-8.3 2.1,-12.4c1.7,0.3 3.3,0.6 5,0.9c0.8,0.2 1.2,0.6 1,1.1c-0.7,3.7 -1.4,7.4 -2.1,11c-1.1,5.5 -5.1,8.1 -10.5,7.2c-5.3,-0.8 -8.4,-4.5 -7.7,-10.1c0.5,-4 1,-7.9 1.4,-11.9l0.1,0.3z"/>
    <path id="svg_10" class="a" d="m198,118.86322c0.4,0.2 1,0.4 1.5,0.5c2,0.5 3.6,-0.1 4.2,-2.1c0.5,-2 -0.5,-3.4 -2.5,-3.9c-0.6,-0.1 -1.1,-0.3 -1.7,-0.4c-0.5,2 -1,4 -1.5,5.9zm-7,8.7c-0.8,-0.2 -1.1,-0.6 -0.9,-1.1c1.4,-6.5 2.8,-12.9 4.3,-19.4c2.7,0.6 5.4,1.2 8.1,1.9c5.8,1.5 8.5,5.4 7.1,10.1c-1.3,4.5 -5.6,6.3 -10.3,5.1c-0.7,-0.2 -1.6,-0.5 -2.4,-0.9c-0.4,1.8 -0.9,3.6 -1.3,5.4c-1.5,-0.4 -3.1,-0.7 -4.6,-1.1z"/>
   </g>
   <g id="logotype">
    <path fill="url(#_Radial3)" d="m102.6,28.16322c1.4,0.5 2.8,0.6 4.3,0.5c4.6,-0.2 9.1,-2.4 11.9,-6.1c2.8,-3.6 3.8,-8.7 2.2,-13.1c-0.6,-1.6 -1.5,-3 -2.4,-4.5c-0.9,-1.4 -1.8,-2.8 -3.2,-3.6c-1.5,-0.9 -3.3,-1.2 -5.1,-1.3c-2.9,-0.2 -6.1,0 -8.4,1.7c-1,0.8 -1.8,1.8 -2.6,2.8c-1.9,2.5 -3.8,5.3 -4.7,8.3c-0.9,3.1 -0.8,6.6 0.9,9.3c0.8,1.2 1.9,2.2 3,3.2c1.2,1.1 2.5,2.1 4.1,2.6l0,0.2z" id="sun"/>
    <path fill="url(#_Linear1)" d="m189.2,73.16322c-0.7,-1.7 -1.3,-1.5 -2.3,-0.7c-1,0.9 -1.7,-0.5 -1.7,-0.5c0,0 -10.8,-24.1 -11.8,-26.1c-0.9,-2.1 -1.4,-1 -1.4,-1c0,0 -0.8,0.9 -1.7,1.9c-0.9,1 -1.4,0 -1.4,0c0,0 -4.7,-9.3 -5.6,-11.1c-0.9,-1.8 -1.7,0 -1.7,0l-5.8,10.7l-13,15.6l12.3,19.2c1.9,-1.9 5.4,-3.9 11.5,-5.6c0,0 13.1,-3.4 -6.4,-6.5c-0.3,0 -0.5,-0.1 -0.8,-0.1c0.9,-0.7 1,-1.2 1,-1.2c3.8,0.7 7.6,1.6 11.2,2.7c9.9,3.1 3.3,6.3 1.1,8.3c-7.2,6.3 1.3,11.2 18.7,12l4.3,0c0,0 -6,-16 -6.6,-17.7l0.1,0.1z" id="mr"/>
    <path fill="url(#_Radial2)" d="m105.1,90.16322c0.9,-1.5 12.8,-21.1 12.8,-21.1c0,0 -7.8,-18.8 -8.1,-19.5c-0.9,-1.9 -4,-3.6 -5.1,-4.3c-4.8,-3.2 -6.6,-10.6 -7.7,-13.5c-0.5,-1.5 -1.2,-3.1 -1.5,-3.1c-0.3,0 -0.5,0.5 -0.5,0.5c-0.6,1.4 -1,3.4 -1,3.4c0,0 -2.6,10.9 -7.1,14.6c-0.9,0.8 -3.1,2.4 -4,3.7c-0.9,1.3 -1.3,2.9 -0.1,4.1c0.5,0.5 0.9,0.7 1.6,0.7c1.4,-0.1 5,-2.2 5.9,-3.1c-0.9,1.7 -2.2,3 -3.7,4.2c-0.7,0.6 -4.2,3.4 -5.1,4.2c-0.9,0.8 -3.2,2.8 -2.4,4.8c0.3,0.7 0.9,1.3 1.6,1.6c0.8,0.3 1.9,0.6 3.1,0.2c2.3,-0.7 4.2,-2.6 6,-4.6c-0.5,0.9 -0.8,1.9 -1.5,2.8c-1.3,1.5 -4.4,3.5 -6,4.4c-2.3,1.4 -5.8,3.3 -4.6,6.6c1,2.9 2.9,2.8 4.6,2.4c2.4,-0.5 4.1,-2.6 5.6,-4.1c0.5,-0.5 1.3,-1 1.7,-1.5c-0.5,1.1 -1.2,2.3 -2,3.3c-1.8,2.1 -4.5,3.3 -7.6,4.9c-0.2,0.1 -2.4,1.4 -3.3,2.1c-2.8,2.1 -2.7,4.8 -2.4,5.6c0.7,1.9 3.2,3.5 6.3,3.6c7,0.2 15.4,-7 16.2,-7.9c1.4,2.1 5.7,4.2 8.2,5.2l0.1,-0.2z" id="ml"/>
    <path id="svg_11" fill="#62b346" d="m158.8,83.36322c2,-2.6 -0.6,-6.7 -2.6,-8.8c-1.1,-1.3 -4.2,-2.7 -6,-3.9c-0.4,-0.3 -1.2,-0.5 -2.2,-0.8l0.3,0.4l7.8,12.4c0,0.1 0.1,0.2 0.1,0.2l0,0l0,0c0.1,0.2 0.2,0.4 0.3,0.5l0,0c0,0.1 0.3,0.5 0.7,1.2c0.6,-0.3 1.1,-0.7 1.5,-1.2l0.1,0z"/>
    <path id="svg_12" fill="#57ad47" d="m108,85.36322c2.1,-3.5 5,-8.2 7.9,-13c-4.7,2.2 -12.2,6.2 -11.3,10.5c0.3,1.4 1.7,2.1 3.5,2.5l-0.1,0z"/>
    <path fill="url(#_Radial4)" d="m116.9,70.66322c0.9,-1.5 1.8,-3.1 2.7,-4.5c5.8,-9.7 12.1,-25.1 12.1,-25.1l8.7,16.7l6.9,10.7c1.6,0.1 3.2,0.2 4.9,0.3c2.7,0.1 8.1,-0.1 8.8,-3.6c0.6,-3.1 -3.2,-5.6 -5.6,-6.6c-2.7,-1.1 -5.4,-1.9 -8.2,-2.2c0,0 7.4,-2.3 9.6,-3.4c3.7,-1.8 1.7,-5.7 -1.2,-7c-2.5,-1.1 -5.3,-1 -7.9,-0.7c-1.6,0.2 -3.1,0.7 -4.7,1c4.4,-2.3 10.1,-3.6 13.7,-7.2c1.6,-1.6 2.9,-4 2.8,-6.2c0,-2.2 -1.7,-3.6 -3.8,-3.9c-1.6,-0.3 -2.9,-0.5 -4.9,0.4c-2.1,0.9 -5.2,2 -7,3.7c2.5,-2.4 4.8,-5.1 6.4,-8.2c1.2,-2.2 2.4,-5.1 2.1,-7.6c-0.1,-0.8 -0.4,-1.6 -0.9,-2.2c-0.6,-0.7 -1.5,-1 -2.4,-1.1c-1.8,-0.1 -3.6,1 -4.8,2.3c-1.9,1.9 -3.3,4.6 -4.4,7c-0.6,1.4 -1.7,3.2 -1.8,4.7c0,-0.1 0,-0.2 0,-0.4c0.3,-3.1 0.4,-6.3 0.5,-9.5c0,-2.7 0.1,-5.5 -0.5,-8.3c-0.5,-2.5 -1.6,-5.8 -3.9,-7.1c-1.5,-0.9 -3,-0.5 -4.3,0.5c-3.2,2.6 -4.8,6.7 -4.9,10.7c-0.1,5.5 1.8,11.4 4.4,16.3c-0.7,-1.3 -1.8,-2.5 -2.8,-3.6c-1.5,-1.8 -3.1,-3.7 -5,-5.2c-1.7,-1.4 -4.6,-3.1 -6.8,-1.8c-1.8,1.1 -1.8,3.7 -1.5,5.6c0.8,4.6 6,10.7 8,12.8c-2,-1.9 -4.9,-3.4 -7.3,-4.6c-2.7,-1.3 -6.2,-2.1 -8.1,0.9c-1.4,2.3 -1,5.5 0.3,7.7c2.6,4.4 7.7,7.7 12.1,9.9c-2.3,-0.7 -4.6,-1.4 -6.9,-2c-2.1,-0.6 -4.5,-1 -6.5,0.2c-2,1.1 -2.5,3.3 -1.4,5.2c2.4,4.4 8.6,6.1 13.2,6.5c-2.9,0 -5.9,0 -8.8,0.4c-1.7,0.2 -3.5,0.2 -5,1c-2.5,1.3 -2.4,4.2 -0.1,5.7c2.6,1.7 6.5,1.8 9.5,1.9c1.5,0 3.1,0 4.6,-0.1l0.1,0z" id="m"/>
    <path class="b" d="m158.1,85.66322c-0.2,-0.3 -0.4,-0.7 -0.7,-1.2c1.4,-0.7 2,-2 2.1,-2.6c0.2,1.1 0,2.1 -0.6,3c-0.2,0.3 -0.5,0.5 -0.7,0.7l-0.1,0.1z" id="l"/>
    <path class="c" d="m107.2,86.76322c-1.4,-0.4 -2.4,-1.1 -2.6,-2.3c-0.1,-0.5 -0.1,-1 0,-1.5c0.5,1.6 2.1,2.1 3.4,2.4c-0.3,0.5 -0.8,1.4 -0.8,1.4z" id="l1"/>
    <path id="svg_13" class="c" d="m101.1,66.86322c0.2,0.8 0.8,1.5 1.6,2.1c2.6,1.7 6.5,1.8 9.5,1.9c1.5,0 4.6,-0.1 4.6,-0.1c0,0 -0.3,0.6 -1,1.7c-0.8,0 -3.2,0.1 -3.6,0.1c-3,-0.1 -7,-0.2 -9.5,-1.9c-1.4,-0.9 -2,-2.4 -1.6,-3.7l0,-0.1zm1.9,-12.7c0.1,0.4 0.2,0.8 0.4,1.2c2.4,4.4 8.6,6.1 13.2,6.5c-2.2,0 -4.4,0 -6.6,0.2c-2.8,-1 -5.3,-2.6 -6.6,-5.1c-0.5,-0.9 -0.6,-1.9 -0.4,-2.8z"/>
    <path id="svg_14" class="b" d="m161,65.26322c0.1,0.5 0.4,2.2 -1.3,3.6c-3,2.4 -11.2,1.3 -11.2,1.3l-1.1,-1.7c1.6,0.1 3.2,0.2 4.9,0.3c2.7,0.1 8,-0.1 8.8,-3.5l-0.1,0zm-2.3,-14.3c0.4,1.3 -0.1,2.7 -1.9,3.6c-1.2,0.6 -4,1.6 -6.3,2.3c-1.1,-0.3 -2.2,-0.4 -3.3,-0.5c0,0 7.4,-2.3 9.6,-3.4c1.1,-0.5 1.7,-1.2 1.9,-2z"/>
   </g>
  </g>
 </g>
</svg>