<svg id="Castopro-logo-blue-yellow" xmlns="http://www.w3.org/2000/svg" xmlns:xlink="http://www.w3.org/1999/xlink" width="180" height="40.83" viewBox="0 0 180 40.83">
  <defs>
    <clipPath id="clip-path">
      <rect id="Rectangle_753" data-name="Rectangle 753" width="180" height="40.83" fill="none"/>
    </clipPath>
  </defs>
  <g id="Group_492" data-name="Group 492" clip-path="url(#clip-path)">
    <path id="Path_3749" data-name="Path 3749" d="M17.366,29.779a6.947,6.947,0,0,1-4.991,2.3c-3.151,0-5.442-2.472-5.442-5.883v-.076c0-3.258,2.288-5.8,5.186-5.8a6.365,6.365,0,0,1,4.939,2.372l.216.223,4.329-4.6-.181-.2a11.483,11.483,0,0,0-9.261-3.852A11.862,11.862,0,0,0,0,25.806Q0,26,0,26.2v.086a11.729,11.729,0,0,0,3.431,8.376,12.089,12.089,0,0,0,8.646,3.474,11.672,11.672,0,0,0,9.463-4.18l.194-.21-4.159-4.164Z" transform="translate(0 -8.938)" fill="#0078d7" fill-rule="evenodd"/>
    <path id="Path_3750" data-name="Path 3750" d="M192.676,0h-6.944V5.728h-2.816v5.651h2.816V22.146c0,4.812,2.089,7.049,6.815,7.049a9.881,9.881,0,0,0,5.236-1.342l.153-.086V22.14l-.451.236a6.257,6.257,0,0,1-3.033.764c-1.248,0-1.776-.561-1.776-1.883V11.379h5.338V5.728h-5.338Z" transform="translate(-114.261 0)" fill="#0078d7" fill-rule="evenodd"/>
    <path id="Path_3751" data-name="Path 3751" d="M243.87,26.314h0a5.438,5.438,0,0,1-5.562,5.8,5.642,5.642,0,0,1-5.663-5.622q0-.13.006-.26v-.076a5.436,5.436,0,0,1,5.569-5.8,5.643,5.643,0,0,1,5.656,5.632q0,.123-.006.247Zm-5.562-12.023a12.825,12.825,0,0,0-9,3.491,11.623,11.623,0,0,0-3.6,8.447v.085a11.544,11.544,0,0,0,3.565,8.4,13.309,13.309,0,0,0,17.928-.038,11.616,11.616,0,0,0,3.593-8.446v-.076a11.528,11.528,0,0,0-3.562-8.41,12.765,12.765,0,0,0-8.932-3.452" transform="translate(-140.996 -8.972)" fill="#0078d7" fill-rule="evenodd"/>
    <path id="Path_3752" data-name="Path 3752" d="M430.883,26.67h0a5.439,5.439,0,0,1-5.562,5.8,5.643,5.643,0,0,1-5.663-5.622c0-.087,0-.174.006-.261v-.076a5.436,5.436,0,0,1,5.569-5.8,5.643,5.643,0,0,1,5.655,5.632q0,.123-.006.247Zm-5.562-12.023a12.824,12.824,0,0,0-9,3.491,11.624,11.624,0,0,0-3.6,8.447v.085a11.543,11.543,0,0,0,3.565,8.4,13.31,13.31,0,0,0,17.929-.037,11.619,11.619,0,0,0,3.594-8.446v-.076a11.527,11.527,0,0,0-3.562-8.41,12.765,12.765,0,0,0-8.931-3.452" transform="translate(-257.816 -9.196)" fill="#ffdc00" fill-rule="evenodd"/>
    <path id="Path_3753" data-name="Path 3753" d="M378.069,19.2V15.688h-6.936V38.66h6.936V29.838c0-4.969,2.267-7.6,6.578-7.6h.634v-6.95l-.286-.008a6.975,6.975,0,0,0-6.927,3.92" transform="translate(-231.833 -9.578)" fill="#ffdc00" fill-rule="evenodd"/>
    <path id="Path_3754" data-name="Path 3754" d="M75.61,26.319h0c0,3.412-2.19,5.8-5.343,5.8-3.084,0-5.424-2.528-5.424-5.883v-.076c0-3.42,2.195-5.8,5.355-5.8,3.088,0,5.412,2.528,5.412,5.877Zm-.28-11.613v2.684A8.283,8.283,0,0,0,68.87,14.3c-5.835,0-10.955,5.377-10.955,11.933v.085c0,6.488,4.959,11.851,10.955,11.851a8.23,8.23,0,0,0,6.46-3.153V37.67h6.935V14.706Z" transform="translate(-36.177 -8.977)" fill="#0078d7" fill-rule="evenodd"/>
    <path id="Path_3755" data-name="Path 3755" d="M306.045,26.589c0-3.352,2.326-5.877,5.418-5.877,3.146,0,5.341,2.38,5.341,5.8v.076c0,3.357-2.33,5.883-5.418,5.883-3.149,0-5.342-2.386-5.342-5.8ZM299.386,15.06V50.032h6.943V35.372a8.22,8.22,0,0,0,6.464,3.153c6,0,10.947-5.359,10.947-11.852v-.085c0-6.56-5.116-11.933-10.947-11.933a8.27,8.27,0,0,0-6.464,3.092V15.06Z" transform="translate(-187.015 -9.202)" fill="#ffdc00" fill-rule="evenodd"/>
    <path id="Path_3756" data-name="Path 3756" d="M135.5,21.533c0-.964,1.043-1.188,2.074-1.188a12.706,12.706,0,0,1,6.145,1.982l2.887-5.235-.232-.152a16.2,16.2,0,0,0-8.67-2.66c-3.2,0-9.14,1.907-9.14,7.1,0,8.09,12.022,6.6,12.022,9.63,0,.9-1.166,1.1-2.417,1.1a13.126,13.126,0,0,1-7.068-2.521l-3.283,4.942.219.171a16.327,16.327,0,0,0,9.97,3.471c5.644,0,9.516-3.661,9.516-7.158,0-7.665-12.025-6.754-12.025-9.476" transform="translate(-79.846 -8.966)" fill="#0078d7" fill-rule="evenodd"/>
  </g>
</svg>
