<?xml version="1.0" encoding="utf-8"?>
<!-- Generator: Adobe Illustrator 22.1.0, SVG Export Plug-In . SVG Version: 6.00 Build 0)  -->
<svg version="1.1" id="Layer_1" xmlns="http://www.w3.org/2000/svg" xmlns:xlink="http://www.w3.org/1999/xlink" x="0px" y="0px"
	 viewBox="0 0 199.6 65.4" style="enable-background:new 0 0 199.6 65.4;" xml:space="preserve">
<style type="text/css">
	.st0{fill:#1A5099;}
	.st1{fill:#4BA2F2;}
</style>
<g>
	<g transform="matrix(1,0,0,1,8,8)">
		<path vector-effect="non-scaling-stroke" class="st0" d="M0.9-0.9C0.2-1.2-8,5.5-8,10.5c0,6.8,9.6,22.3,11.2,28.3
			c1.4,5.1-2.4,11.3-1.3,11.6C2.9,51,11.8,41.9,12.2,38C12.6,31.9,1.7,14,0.8,9.3C-0.2,3.9,1.6-0.8,0.9-0.9"/>
	</g>
	<g transform="matrix(1,0,0,1,8,8)">
		<path vector-effect="non-scaling-stroke" class="st1" d="M21.5-8C20.7-8.4,10.1,0.2,10.1,6.6c0,8.7,12.3,28.4,14.3,36
			c1.8,6.5-3,14.4-1.7,14.7c1.2,0.8,12.7-10.8,13.1-15.7C36.5,33.9,22.5,11,21.4,5.1C20.1-1.8,22.4-7.8,21.5-8"/>
	</g>
	<g transform="matrix(1,0,0,1,8,8)">
		<path vector-effect="non-scaling-stroke" class="st0" d="M42.7-0.9c-0.6-0.3-8.9,6.5-8.9,11.5c0,6.8,9.6,22.3,11.2,28.3
			c1.4,5.1-2.4,11.3-1.3,11.6c1,0.6,9.9-8.5,10.3-12.3C54.5,31.9,43.5,14,42.7,9.3C41.7,3.9,43.5-0.8,42.7-0.9"/>
		<path vector-effect="non-scaling-stroke" class="st0" d="M98.1,29.2c0-7.4-11.5-5.1-11.5-8.7c0-1.4,1.3-2.4,3.3-2.4
			c1.6,0,3.2,0.4,4.6,1.3c0.3,0.2,0.6,0.3,1,0.3c0.9,0,1.7-0.7,1.7-1.6c0-0.3-0.1-0.7-0.4-0.9c-1.3-1.4-4.3-2.2-6.7-2.2
			c-4.4,0-7.2,2.5-7.2,5.8c0,7.3,11.5,4.7,11.5,8.8c0,1.3-1.1,2.7-3.9,2.7c-2.1,0-3.8-0.7-5.2-1.8c-0.3-0.2-0.6-0.3-1-0.3
			c-0.9,0-1.7,0.8-1.7,1.7c0,0.4,0.1,0.7,0.4,1c1.3,1.6,4.4,2.5,7.3,2.5C95.8,35.3,98.1,32.5,98.1,29.2 M120,16.8
			c0-0.9-0.7-1.6-1.5-1.6h-12.8c-0.9,0-1.5,0.7-1.5,1.5c0,0.9,0.7,1.6,1.5,1.6h4.6v15.1c0,0.9,0.8,1.7,1.8,1.7c1,0,1.8-0.8,1.8-1.7
			V18.3h4.6C119.3,18.3,120,17.7,120,16.8 M141.1,33.4c0-0.8-0.7-1.5-1.5-1.5h-8.7v-5.4h8.5c0.8,0,1.5-0.7,1.5-1.5
			c0-0.9-0.7-1.6-1.5-1.6h-8.5v-5h8.7c0.8,0,1.5-0.7,1.5-1.5c0-0.9-0.7-1.6-1.5-1.6h-10.1c-1.2,0-2.1,1-2.1,2.1v15.5
			c0,1.2,1,2.1,2.1,2.1h10.1C140.5,35,141.1,34.3,141.1,33.4 M162.9,33.4c0-0.8-0.7-1.5-1.5-1.5h-8.7v-5.4h8.5
			c0.8,0,1.5-0.7,1.5-1.5c0-0.9-0.7-1.6-1.5-1.6h-8.5v-5h8.7c0.8,0,1.5-0.7,1.5-1.5c0-0.9-0.7-1.6-1.5-1.6h-10.1
			c-1.2,0-2.1,1-2.1,2.1v15.5c0,1.2,1,2.1,2.1,2.1h10.1C162.2,35,162.9,34.3,162.9,33.4 M191.6,33.4v-16c0-1.6-1.5-2.4-3.2-2.2
			c-1.1,0-2.1,0.7-2.5,1.7l-4.7,11.4l-4.7-11.4c-0.6-1.3-1.9-1.8-3.4-1.7c-1.2,0-2.2,1-2.2,2.2v16c0,0.9,0.8,1.7,1.7,1.7
			c1,0,1.8-0.8,1.8-1.7V20.2l5.8,14.3c0.1,0.4,0.5,0.6,0.9,0.6c0.5,0,0.8-0.3,1-0.6l5.9-14.3v13.2c0,0.9,0.8,1.7,1.8,1.7
			C190.7,35.1,191.6,34.3,191.6,33.4"/>
	</g>
</g>
</svg>
