<svg xmlns="http://www.w3.org/2000/svg" version="1.1" xmlns:xlink="http://www.w3.org/1999/xlink" xmlns:svgjs="http://svgjs.dev/svgjs" width="1000" height="237" viewBox="0 0 1000 237"><g transform="matrix(1,0,0,1,-0.6060606060606233,-0.5400193640383009)"><svg viewBox="0 0 396 94" data-background-color="#ffffff" preserveAspectRatio="xMidYMid meet" height="237" width="1000" xmlns="http://www.w3.org/2000/svg" xmlns:xlink="http://www.w3.org/1999/xlink"><g id="tight-bounds" transform="matrix(1,0,0,1,0.2400000000000091,0.214184895441349)"><svg viewBox="0 0 395.52 93.5716302091173" height="93.5716302091173" width="395.52"><g><svg viewBox="0 0 541.6309592068185 128.13837941118" height="93.5716302091173" width="395.52"><g transform="matrix(1,0,0,1,146.1109592068185,28.781264570063485)"><svg viewBox="0 0 395.52 70.57585027105304" height="70.57585027105304" width="395.52"><g id="textblocktransform"><svg viewBox="0 0 395.52 70.57585027105304" height="70.57585027105304" width="395.52" id="textblock"><g><svg viewBox="0 0 395.52 38.06524126899493" height="38.06524126899493" width="395.52"><g transform="matrix(1,0,0,1,0,0)"><svg width="395.52" viewBox="3.85 -35.5 374.97999999999996 36.1" height="38.06524126899493" data-palette-color="#e30022"><g class="undefined-text-0" data-fill-palette-color="primary" id="text-0"><path d="M29.95 0L29.95-22.9 29.8-22.9 27.25-17.8 20.45-5.45 13.8-17.75 11.15-23.25 11-23.25 11 0 3.85 0 3.85-34.9 11.9-34.9 20.45-18.55 20.55-18.55 29-34.9 37.1-34.9 37.1 0 29.95 0ZM74.2 0L66.3 0 63.8-8.3 52.15-8.3 49.65 0 41.95 0 53.45-34.9 62.85-34.9 74.2 0ZM61.95-14.75L58.05-28 57.8-28 53.95-14.75 61.95-14.75ZM86.65-12.8L86.65 0 79.05 0 79.05-34.9 95.6-34.9Q98-34.9 99.95-34.1 101.9-33.3 103.27-31.83 104.65-30.35 105.4-28.3 106.15-26.25 106.15-23.75L106.15-23.75Q106.15-20.2 104.57-17.55 103-14.9 99.8-13.7L99.8-13.7 106.65 0 98.2 0 92.1-12.8 86.65-12.8ZM86.65-19.2L94.65-19.2Q96.35-19.2 97.32-20.08 98.3-20.95 98.3-22.65L98.3-22.65 98.3-24.85Q98.3-26.55 97.32-27.43 96.35-28.3 94.65-28.3L94.65-28.3 86.65-28.3 86.65-19.2ZM136.49 0L112.74 0 112.74-34.9 136.49-34.9 136.49-28.15 120.34-28.15 120.34-21 134.19-21 134.19-14.3 120.34-14.3 120.34-6.75 136.49-6.75 136.49 0ZM164.49 0L155.24-15.2 150.69-9.7 150.69 0 143.09 0 143.09-34.9 150.69-34.9 150.69-18.3 150.99-18.3 155.94-25.05 163.79-34.9 172.39-34.9 160.64-20.55 173.44 0 164.49 0Z" fill="#e30022" data-fill-palette-color="primary"></path><path d="M188.59 0.6L188.59 0.6Q183.99 0.6 180.79-0.98 177.59-2.55 175.34-5.05L175.34-5.05 180.34-10.1Q183.89-6.1 189.09-6.1L189.09-6.1Q191.89-6.1 193.24-7.25 194.59-8.4 194.59-10.3L194.59-10.3Q194.59-11.75 193.79-12.73 192.99-13.7 190.54-14.05L190.54-14.05 187.09-14.5Q181.54-15.2 178.97-17.85 176.39-20.5 176.39-24.9L176.39-24.9Q176.39-27.25 177.29-29.2 178.19-31.15 179.87-32.55 181.54-33.95 183.97-34.73 186.39-35.5 189.49-35.5L189.49-35.5Q193.44-35.5 196.44-34.25 199.44-33 201.59-30.6L201.59-30.6 196.54-25.5Q195.29-26.95 193.52-27.88 191.74-28.8 189.04-28.8L189.04-28.8Q186.49-28.8 185.24-27.9 183.99-27 183.99-25.4L183.99-25.4Q183.99-23.6 184.97-22.8 185.94-22 188.14-21.65L188.14-21.65 191.59-21.1Q196.99-20.25 199.59-17.78 202.19-15.3 202.19-10.75L202.19-10.75Q202.19-8.25 201.29-6.15 200.39-4.05 198.67-2.55 196.94-1.05 194.39-0.23 191.84 0.6 188.59 0.6ZM233.04-6.75L233.04 0 206.59 0 206.59-6.75 223.79-28.15 207.44-28.15 207.44-34.9 232.64-34.9 232.64-28.15 215.39-6.75 233.04-6.75ZM238.64-34.9L246.03-34.9 246.03-13.5Q246.03-9.8 247.49-7.98 248.94-6.15 252.34-6.15L252.34-6.15Q255.74-6.15 257.19-7.98 258.64-9.8 258.64-13.5L258.64-13.5 258.64-34.9 266.03-34.9 266.03-14.3Q266.03-10.45 265.31-7.63 264.59-4.8 262.94-2.98 261.28-1.15 258.69-0.28 256.09 0.6 252.34 0.6L252.34 0.6Q248.59 0.6 245.99-0.28 243.39-1.15 241.74-2.98 240.08-4.8 239.36-7.63 238.64-10.45 238.64-14.3L238.64-14.3 238.64-34.9ZM299.63 0L299.63-22.9 299.48-22.9 296.93-17.8 290.13-5.45 283.48-17.75 280.83-23.25 280.68-23.25 280.68 0 273.53 0 273.53-34.9 281.58-34.9 290.13-18.55 290.23-18.55 298.68-34.9 306.78-34.9 306.78 0 299.63 0ZM334.68 0L325.13-16.5 321.78-23.5 321.63-23.5 321.63 0 314.48 0 314.48-34.9 322.78-34.9 332.33-18.4 335.68-11.4 335.83-11.4 335.83-34.9 342.98-34.9 342.98 0 334.68 0ZM366.88 0L359.23 0 359.23-13.65 347.28-34.9 355.78-34.9 363.28-21 363.38-21 370.58-34.9 378.83-34.9 366.88-13.7 366.88 0Z" fill="#ff851b" data-fill-palette-color="secondary"></path></g></svg></g></svg></g><g transform="matrix(1,0,0,1,277.8833054293164,47.05153116681418)"><svg viewBox="0 0 117.63669457068357 23.524319104238867" height="23.524319104238867" width="117.63669457068357"><g transform="matrix(1,0,0,1,0,0)"><svg width="117.63669457068357" viewBox="3.69 -37.55 190.19 38.04" height="23.524319104238867" data-palette-color="#ff851b"><path d="M44.43-32.3L44.43 0 38.04 0 38.04-20.85 26.78-1.05Q26.37-0.29 25.62 0.1 24.88 0.49 24.02 0.49L24.02 0.49Q23.19 0.49 22.47 0.1 21.75-0.29 21.34-1.05L21.34-1.05 10.03-20.85 10.03 0 3.69 0 3.69-32.3Q3.69-33.4 4.33-34.25 4.98-35.11 6.03-35.4L6.03-35.4Q6.54-35.52 7.06-35.49 7.57-35.45 8.04-35.27 8.52-35.08 8.91-34.75 9.3-34.42 9.57-33.96L9.57-33.96 24.02-8.84 38.48-33.96Q39.04-34.89 40.03-35.28 41.02-35.67 42.09-35.4L42.09-35.4Q43.12-35.11 43.77-34.25 44.43-33.4 44.43-32.3L44.43-32.3ZM78.22-17.65L78.22-8.74Q78.22-7.42 77.76-5.9 77.29-4.37 76.25-3.06 75.22-1.76 73.54-0.88 71.87 0 69.48 0L69.48 0 58.03 0Q56.71 0 55.19-0.46 53.66-0.93 52.35-1.97 51.05-3 50.17-4.68 49.29-6.35 49.29-8.74L49.29-8.74Q49.29-10.06 49.75-11.6 50.22-13.13 51.25-14.44 52.29-15.75 53.96-16.63 55.64-17.5 58.03-17.5L58.03-17.5 69.48-17.5 69.48-11.45 58.03-11.45Q56.74-11.45 56.03-10.66 55.32-9.86 55.32-8.69L55.32-8.69Q55.32-7.45 56.14-6.75 56.96-6.05 58.08-6.05L58.08-6.05 69.48-6.05Q70.77-6.05 71.48-6.84 72.19-7.62 72.19-8.79L72.19-8.79 72.19-17.65Q72.19-18.9 71.42-19.63 70.65-20.36 69.48-20.36L69.48-20.36 55.54-20.36 55.54-26.39 69.48-26.39Q70.8-26.39 72.32-25.93 73.85-25.46 75.16-24.43 76.46-23.39 77.34-21.72 78.22-20.04 78.22-17.65L78.22-17.65ZM106.73-26.39L106.73-20.04 92.45-20.04Q91.16-20.04 90.5-19.4 89.84-18.75 89.84-17.5L89.84-17.5 89.84 0 83.49 0 83.49-17.5Q83.49-19.14 83.91-20.43 84.32-21.73 85.02-22.72 85.71-23.71 86.62-24.4 87.52-25.1 88.51-25.54 89.5-25.98 90.51-26.18 91.52-26.39 92.4-26.39L92.4-26.39 106.73-26.39ZM126.97-14.4L141.91 0 132.76 0 119.96-12.35Q118.89-13.33 118.96-14.79L118.96-14.79Q119.01-15.48 119.32-16.08 119.62-16.67 120.16-17.09L120.16-17.09 131.76-26.44 141.91-26.44 126.97-14.4ZM117.35-37.55L117.35 0 111 0 111-37.55 117.35-37.55ZM168.08-23.24L168.08-20.7 184.97-20.7Q186.32-20.7 187.87-20.23 189.42-19.75 190.76-18.69 192.1-17.63 192.99-15.92 193.88-14.21 193.88-11.74L193.88-11.74 193.88-8.91Q193.88-8.01 193.68-7.01 193.47-6.01 193.02-5.02 192.57-4.03 191.87-3.13 191.17-2.22 190.19-1.53 189.2-0.83 187.9-0.42 186.61 0 184.97 0L184.97 0 173.47 0Q172.3 0 170.97-0.27 169.64-0.54 168.35-1.14 167.05-1.73 165.84-2.65 164.64-3.56 163.73-4.87 162.83-6.18 162.28-7.89 161.73-9.59 161.73-11.74L161.73-11.74 161.73-23.24Q161.73-25.39 162.28-27.1 162.83-28.81 163.73-30.11 164.64-31.42 165.84-32.35 167.05-33.28 168.35-33.87 169.64-34.47 170.97-34.74 172.3-35.01 173.47-35.01L173.47-35.01 189.39-35.01 189.39-28.66 173.47-28.66Q172.25-28.56 171.26-28.15 170.28-27.73 169.57-27.05 168.86-26.37 168.47-25.4 168.08-24.44 168.08-23.24L168.08-23.24ZM184.92-14.31L168.08-14.31 168.08-11.74Q168.08-10.5 168.51-9.51 168.93-8.52 169.67-7.81 170.4-7.1 171.39-6.73 172.38-6.35 173.52-6.35L173.52-6.35 184.97-6.35Q186.19-6.35 186.84-7.08 187.49-7.81 187.49-8.91L187.49-8.91 187.49-11.74Q187.49-12.99 186.85-13.65 186.22-14.31 184.92-14.31L184.92-14.31Z" opacity="1" transform="matrix(1,0,0,1,0,0)" fill="#ff851b" class="undefined-text-1" data-fill-palette-color="secondary" id="text-1"></path></svg></g></svg></g></svg></g></svg></g><g><svg viewBox="0 0 128.13837941118 128.13837941118" height="128.13837941118" width="128.13837941118"><g><svg></svg></g><g id="icon-0"><svg viewBox="0 0 128.13837941118 128.13837941118" height="128.13837941118" width="128.13837941118"><g><path d="M0 64.069c0-35.384 28.685-64.069 64.069-64.069 35.384 0 64.069 28.685 64.069 64.069 0 35.384-28.685 64.069-64.069 64.069-35.384 0-64.069-28.685-64.069-64.069zM64.069 124.706c33.489 0 60.636-27.148 60.637-60.637 0-33.489-27.148-60.636-60.637-60.636-33.489 0-60.636 27.148-60.636 60.636 0 33.489 27.148 60.636 60.636 60.637z" data-fill-palette-color="accent" fill="#cc0000" stroke="transparent"></path></g><g transform="matrix(1,0,0,1,38.476157741939375,27.674226219131604)"><svg viewBox="0 0 51.18606392730126 72.7899269729168" height="72.7899269729168" width="51.18606392730126"><g><svg xmlns="http://www.w3.org/2000/svg" xmlns:xlink="http://www.w3.org/1999/xlink" version="1.1" x="0" y="0" viewBox="15.138 1.6830000000000003 67.563 96.079" enable-background="new 0 0 100 100" xml:space="preserve" height="72.7899269729168" width="51.18606392730126" class="icon-p$-0" data-fill-palette-color="accent" id="p$-0"><g fill="#cc0000" data-fill-palette-color="accent"><path d="M50.658 17.943c0 1.934 1.568 3.502 3.502 3.502 1.936 0 3.503-1.568 3.503-3.502 0-1.935-1.567-3.503-3.503-3.503C52.227 14.44 50.658 16.008 50.658 17.943L50.658 17.943zM40.404 26.125c0 1.284 1.097 2.325 2.45 2.325h11.208c1.352 0 2.449-1.041 2.449-2.325 0-1.284-1.098-2.325-2.449-2.325H42.854C41.501 23.8 40.404 24.841 40.404 26.125L40.404 26.125zM39.296 17.943c0 1.934 1.568 3.502 3.503 3.502s3.503-1.568 3.503-3.502c0-1.935-1.568-3.503-3.503-3.503S39.296 16.008 39.296 17.943L39.296 17.943zM39.282 36.843v6.525c0 0.676 0.548 1.224 1.224 1.224h4.836c0.151-1.559 1.466-2.778 3.065-2.778 0.422 0 0.825 0.085 1.191 0.239l3.133-3.61c0.535-0.617 1.461 0.186 0.925 0.803l-3.04 3.502c0.474 0.487 0.788 1.13 0.857 1.844h4.91c0.676 0 1.225-0.548 1.225-1.224v-6.525c0-0.676-0.549-1.225-1.225-1.225H40.506C39.83 35.618 39.282 36.167 39.282 36.843L39.282 36.843zM46.205 5.277c0 1.023 0.667 1.891 1.589 2.192V7.351c0-0.428 0.335-0.645 0.645-0.645s0.644 0.217 0.644 0.645v0.161c0.997-0.254 1.734-1.159 1.734-2.234 0-1.274-1.032-2.306-2.307-2.306C47.238 2.971 46.205 4.003 46.205 5.277L46.205 5.277zM27.612 59.116l-1.124 0.239-1.251-5.887c-0.277-1.307-1.561-2.141-2.867-1.863l-0.43 0.092c-1.306 0.277-2.139 1.561-1.861 2.866l1.251 5.888-1.125 0.239-2.534-2.813-2.533-2.814 1.17-3.602 1.17-3.601 0.765-0.163c-0.227-1.143-0.22-2.247-0.094-3.271 0.804-6.547 6.97-10.524 13.624-11.378 0.448-0.588 1.155-0.968 1.951-0.968h9.514v-1.219h-3.831c-1.256 0-2.274-1.019-2.274-2.275v-3.858H35.78c-0.676 0-1.225-0.549-1.225-1.225v-4.954c0-0.676 0.548-1.225 1.225-1.225h1.352v-4.858c0-1.256 1.019-2.274 2.274-2.274h8.389V8.801c-1.643-0.333-2.878-1.783-2.878-3.523 0-1.986 1.609-3.595 3.595-3.595s3.596 1.609 3.596 3.595c0 1.791-1.31 3.275-3.023 3.55v1.364H57.5c1.256 0 2.275 1.019 2.275 2.274v4.858h1.334c0.678 0 1.227 0.548 1.227 1.225v4.954c0 0.676-0.549 1.225-1.227 1.225h-1.334v3.858c0 1.256-1.02 2.275-2.275 2.275h-3.801v1.219h9.512c0.863 0 1.623 0.448 2.059 1.124 5.086-0.601 8.021-3.439 8.343-6.062 0.062-0.489 0.054-0.898-0.008-1.252l-0.651 0.139-2.533-2.814L67.886 20.4l1.169-3.601 1.172-3.601 1.125-0.239 1.25 5.887c0.277 1.306 1.562 2.139 2.867 1.861l0.43-0.091c1.307-0.277 2.139-1.561 1.861-2.867l-1.25-5.887 1.123-0.239 2.533 2.814 2.535 2.814-1.17 3.601-1.172 3.601-0.764 0.163c0.227 1.142 0.219 2.246 0.094 3.271-0.82 6.679-7.223 10.684-14.03 11.426V61.26c0 1.352-1.097 2.447-2.448 2.447h-0.473V89.25h1.178v6.333h1.336v2.179H49.326v-2.179h1.402V89.25h1.521V63.707h-7.645V89.25h1.178v6.333h1.337v2.179H31.192v-2.179h1.403V89.25h1.521V63.707h-0.393c-1.353 0-2.449-1.096-2.449-2.447V39.32c-4.289 0.89-6.754 3.46-7.048 5.852-0.061 0.49-0.053 0.898 0.008 1.252l0.652-0.138 2.533 2.814 2.534 2.812-1.169 3.603L27.612 59.116 27.612 59.116z" fill="#cc0000" data-fill-palette-color="accent"></path></g></svg></g></svg></g></svg></g></svg></g></svg></g><defs></defs></svg><rect width="395.52" height="93.5716302091173" fill="none" stroke="none" visibility="hidden"></rect></g></svg></g></svg>