<svg xmlns="http://www.w3.org/2000/svg" version="1.1" xmlns:xlink="http://www.w3.org/1999/xlink" xmlns:svgjs="http://svgjs.dev/svgjs" width="1000" height="227" viewBox="0 0 1000 227"><g transform="matrix(1,0,0,1,-0.6060606060606233,-0.21906390120831531)"><svg viewBox="0 0 396 90" data-background-color="#ffffff" preserveAspectRatio="xMidYMid meet" height="227" width="1000" xmlns="http://www.w3.org/2000/svg" xmlns:xlink="http://www.w3.org/1999/xlink"><g id="tight-bounds" transform="matrix(1,0,0,1,0.2400000000000091,0.08685352911342648)"><svg viewBox="0 0 395.52 89.82629294177313" height="89.82629294177313" width="395.52"><g><svg viewBox="0 0 564.8220712050415 128.27637749808633" height="89.82629294177313" width="395.52"><g><rect width="6.5792674206788" height="124.37796371015602" x="145.49959064122456" y="1.9492068939651546" fill="#89939e" opacity="1" stroke-width="0" stroke="transparent" fill-opacity="1" class="rect-n$-0" data-fill-palette-color="primary" rx="1%" id="n$-0" data-palette-color="#89939e"></rect></g><g transform="matrix(1,0,0,1,169.30207120504159,2.258604813642151)"><svg viewBox="0 0 395.52 123.75916787080203" height="123.75916787080203" width="395.52"><g id="textblocktransform"><svg viewBox="0 0 395.52 123.75916787080203" height="123.75916787080203" width="395.52" id="textblock"><g><svg viewBox="0 0 395.52 72.95622233152976" height="72.95622233152976" width="395.52"><g transform="matrix(1,0,0,1,0,0)"><svg width="395.52" viewBox="3.75 -37 205.03 37.5" height="72.95622233152976" data-palette-color="#89939e"><g class="undefined-text-0" data-fill-palette-color="primary" id="text-0"><path d="M6.8-35L18.2-35Q20.8-35 23.08-33.5 25.35-32 26.75-29.45 28.15-26.9 28.15-23.75L28.15-23.75Q28.15-20.65 26.75-18.1 25.35-15.55 23.08-14.03 20.8-12.5 18.2-12.5L18.2-12.5 9-12.5 9.5-13.4 9.5-3.05Q9.5-1.75 8.7-0.88 7.9 0 6.6 0L6.6 0Q5.35 0 4.55-0.88 3.75-1.75 3.75-3.05L3.75-3.05 3.75-31.95Q3.75-33.25 4.63-34.13 5.5-35 6.8-35L6.8-35ZM8.95-18.2L18.2-18.2Q19.15-18.2 20.05-19 20.95-19.8 21.55-21.08 22.15-22.35 22.15-23.75L22.15-23.75Q22.15-25.2 21.55-26.45 20.95-27.7 20.05-28.48 19.15-29.25 18.2-29.25L18.2-29.25 8.9-29.25 9.5-30.15 9.5-17.4 8.95-18.2ZM59.1-13.35L59.1-13.35Q59.1-9.25 57.27-6.13 55.45-3 52.37-1.25 49.3 0.5 45.5 0.5L45.5 0.5Q41.7 0.5 38.62-1.25 35.55-3 33.72-6.13 31.9-9.25 31.9-13.35L31.9-13.35Q31.9-17.45 33.72-20.58 35.55-23.7 38.62-25.48 41.7-27.25 45.5-27.25L45.5-27.25Q49.3-27.25 52.37-25.48 55.45-23.7 57.27-20.58 59.1-17.45 59.1-13.35ZM53.1-13.35L53.1-13.35Q53.1-15.9 52.07-17.78 51.05-19.65 49.32-20.7 47.6-21.75 45.5-21.75L45.5-21.75Q43.4-21.75 41.67-20.7 39.95-19.65 38.92-17.78 37.9-15.9 37.9-13.35L37.9-13.35Q37.9-10.85 38.92-8.97 39.95-7.1 41.67-6.05 43.4-5 45.5-5L45.5-5Q47.6-5 49.32-6.05 51.05-7.1 52.07-8.97 53.1-10.85 53.1-13.35ZM67.09 0L67.09 0Q65.8 0 64.95-0.88 64.09-1.75 64.09-3.05L64.09-3.05 64.09-23.7Q64.09-25 64.95-25.88 65.8-26.75 67.09-26.75L67.09-26.75Q68.4-26.75 69.25-25.88 70.09-25 70.09-23.7L70.09-23.7 70.09-19 69.75-22.35Q70.3-23.55 71.17-24.48 72.05-25.4 73.15-26.03 74.25-26.65 75.5-26.95 76.75-27.25 78-27.25L78-27.25Q79.5-27.25 80.52-26.4 81.55-25.55 81.55-24.4L81.55-24.4Q81.55-22.75 80.7-22.03 79.84-21.3 78.84-21.3L78.84-21.3Q77.9-21.3 77.12-21.65 76.34-22 75.34-22L75.34-22Q74.45-22 73.52-21.58 72.59-21.15 71.82-20.25 71.05-19.35 70.57-18.03 70.09-16.7 70.09-14.9L70.09-14.9 70.09-3.05Q70.09-1.75 69.25-0.88 68.4 0 67.09 0ZM86.09-26.25L86.09-26.25 97.94-26.25Q99.14-26.25 99.94-25.45 100.74-24.65 100.74-23.45L100.74-23.45Q100.74-22.3 99.94-21.53 99.14-20.75 97.94-20.75L97.94-20.75 86.09-20.75Q84.89-20.75 84.09-21.55 83.29-22.35 83.29-23.55L83.29-23.55Q83.29-24.7 84.09-25.48 84.89-26.25 86.09-26.25ZM91.44-32.5L91.44-32.5Q92.74-32.5 93.57-31.63 94.39-30.75 94.39-29.45L94.39-29.45 94.39-7.2Q94.39-6.5 94.67-6.05 94.94-5.6 95.42-5.4 95.89-5.2 96.44-5.2L96.44-5.2Q97.04-5.2 97.54-5.43 98.04-5.65 98.69-5.65L98.69-5.65Q99.39-5.65 99.97-5 100.54-4.35 100.54-3.2L100.54-3.2Q100.54-1.8 99.02-0.9 97.49 0 95.74 0L95.74 0Q94.69 0 93.42-0.18 92.14-0.35 91.02-1.03 89.89-1.7 89.14-3.1 88.39-4.5 88.39-6.95L88.39-6.95 88.39-29.45Q88.39-30.75 89.27-31.63 90.14-32.5 91.44-32.5ZM119.99-37L119.99-37Q121.09-37 122.14-36.7 123.19-36.4 123.89-35.73 124.59-35.05 124.59-33.95L124.59-33.95Q124.59-32.7 123.87-31.98 123.14-31.25 122.19-31.25L122.19-31.25Q121.74-31.25 120.84-31.48 119.94-31.7 119.09-31.7L119.09-31.7Q117.84-31.7 117.17-31.15 116.49-30.6 116.24-29.88 115.99-29.15 115.99-28.6L115.99-28.6 115.99-3.05Q115.99-1.75 115.14-0.88 114.29 0 112.99 0L112.99 0Q111.69 0 110.84-0.88 109.99-1.75 109.99-3.05L109.99-3.05 109.99-28.55Q109.99-32.1 112.49-34.55 114.99-37 119.99-37ZM107.29-26.25L120.54-26.25Q121.74-26.25 122.54-25.48 123.34-24.7 123.34-23.5L123.34-23.5Q123.34-22.3 122.54-21.53 121.74-20.75 120.54-20.75L120.54-20.75 107.29-20.75Q106.09-20.75 105.29-21.53 104.49-22.3 104.49-23.5L104.49-23.5Q104.49-24.7 105.29-25.48 106.09-26.25 107.29-26.25L107.29-26.25ZM152.79-13.35L152.79-13.35Q152.79-9.25 150.96-6.13 149.14-3 146.06-1.25 142.99 0.5 139.19 0.5L139.19 0.5Q135.39 0.5 132.31-1.25 129.24-3 127.41-6.13 125.59-9.25 125.59-13.35L125.59-13.35Q125.59-17.45 127.41-20.58 129.24-23.7 132.31-25.48 135.39-27.25 139.19-27.25L139.19-27.25Q142.99-27.25 146.06-25.48 149.14-23.7 150.96-20.58 152.79-17.45 152.79-13.35ZM146.79-13.35L146.79-13.35Q146.79-15.9 145.76-17.78 144.74-19.65 143.01-20.7 141.29-21.75 139.19-21.75L139.19-21.75Q137.09-21.75 135.36-20.7 133.64-19.65 132.61-17.78 131.59-15.9 131.59-13.35L131.59-13.35Q131.59-10.85 132.61-8.97 133.64-7.1 135.36-6.05 137.09-5 139.19-5L139.19-5Q141.29-5 143.01-6.05 144.74-7.1 145.76-8.97 146.79-10.85 146.79-13.35ZM164.29-33.95L164.29-3.05Q164.29-1.75 163.41-0.88 162.54 0 161.24 0L161.24 0Q159.99 0 159.14-0.88 158.29-1.75 158.29-3.05L158.29-3.05 158.29-33.95Q158.29-35.25 159.16-36.13 160.04-37 161.34-37L161.34-37Q162.64-37 163.46-36.13 164.29-35.25 164.29-33.95L164.29-33.95ZM176.93-23.7L176.93-3.05Q176.93-1.75 176.08-0.88 175.23 0 173.93 0L173.93 0Q172.63 0 171.78-0.88 170.93-1.75 170.93-3.05L170.93-3.05 170.93-23.7Q170.93-25 171.78-25.88 172.63-26.75 173.93-26.75L173.93-26.75Q175.23-26.75 176.08-25.88 176.93-25 176.93-23.7L176.93-23.7ZM173.88-30L173.88-30Q172.18-30 171.48-30.55 170.78-31.1 170.78-32.5L170.78-32.5 170.78-33.45Q170.78-34.9 171.56-35.43 172.33-35.95 173.93-35.95L173.93-35.95Q175.68-35.95 176.38-35.4 177.08-34.85 177.08-33.45L177.08-33.45 177.08-32.5Q177.08-31.05 176.33-30.53 175.58-30 173.88-30ZM208.78-13.35L208.78-13.35Q208.78-9.25 206.96-6.13 205.13-3 202.06-1.25 198.98 0.5 195.18 0.5L195.18 0.5Q191.38 0.5 188.31-1.25 185.23-3 183.41-6.13 181.58-9.25 181.58-13.35L181.58-13.35Q181.58-17.45 183.41-20.58 185.23-23.7 188.31-25.48 191.38-27.25 195.18-27.25L195.18-27.25Q198.98-27.25 202.06-25.48 205.13-23.7 206.96-20.58 208.78-17.45 208.78-13.35ZM202.78-13.35L202.78-13.35Q202.78-15.9 201.76-17.78 200.73-19.65 199.01-20.7 197.28-21.75 195.18-21.75L195.18-21.75Q193.08-21.75 191.36-20.7 189.63-19.65 188.61-17.78 187.58-15.9 187.58-13.35L187.58-13.35Q187.58-10.85 188.61-8.97 189.63-7.1 191.36-6.05 193.08-5 195.18-5L195.18-5Q197.28-5 199.01-6.05 200.73-7.1 201.76-8.97 202.78-10.85 202.78-13.35Z" fill="#89939e" data-fill-palette-color="primary"></path></g></svg></g></svg></g><g transform="matrix(1,0,0,1,94.9248,90.17943547466798)"><svg viewBox="0 0 300.5952 33.57973239613405" height="33.57973239613405" width="300.5952"><g transform="matrix(1,0,0,1,0,0)"><svg width="300.5952" viewBox="4.4 -37 398.31 44.5" height="33.57973239613405" data-palette-color="#89939e"><path d="M9.45 0L4.4 0 4.4-34.5 27.2-34.5 27.2-29.9 9.45-29.9 9.45-18.8 25.7-18.8 25.7-14.2 9.45-14.2 9.45 0ZM32.2-7.7L32.2-7.7 32.2-18.45Q32.2-26.1 39.85-26.1L39.85-26.1 46.85-26.1Q54.5-26.1 54.5-18.45L54.5-18.45 54.5-7.7Q54.5 0 46.85 0L46.85 0 39.85 0Q32.2 0 32.2-7.7ZM37.05-18.95L37.05-7.2Q37.05-4.25 40-4.25L40-4.25 46.75-4.25Q49.65-4.25 49.65-7.2L49.65-7.2 49.65-18.95Q49.65-21.85 46.75-21.85L46.75-21.85 40-21.85Q37.05-21.85 37.05-18.95L37.05-18.95ZM66.55 0L61.7 0 61.7-23Q63.45-26.1 68.34-26.1L68.34-26.1 73.5-26.1 75.8-24.4 75.8-21.85 69.3-21.85Q67.34-21.85 66.55-20.85L66.55-20.85 66.55 0ZM106.89 0L93.49 0 93.49-34.5 106.89-34.5Q119.79-34.5 119.79-21.5L119.79-21.5 119.79-13Q119.79 0 106.89 0L106.89 0ZM98.54-29.9L98.54-4.6 107.14-4.6Q114.74-4.6 114.74-12.2L114.74-12.2 114.74-22.3Q114.74-29.9 107.14-29.9L107.14-29.9 98.54-29.9ZM126.69-7.7L126.69-7.7 126.69-18.45Q126.69-26.1 134.34-26.1L134.34-26.1 140.84-26.1Q148.49-26.1 148.49-18.45L148.49-18.45 148.49-11.25 131.54-11.25 131.54-7.2Q131.54-4.25 134.49-4.25L134.49-4.25 147.49-4.25 147.49-1.7 145.24 0 134.34 0Q126.69 0 126.69-7.7ZM131.54-18.95L131.54-15.05 143.64-15.05 143.64-18.95Q143.64-21.85 140.74-21.85L140.74-21.85 134.49-21.85Q131.54-21.85 131.54-18.95L131.54-18.95ZM161.49 0L152.94-25.3 153.49-26.1 157.69-26.1 164.79-4.25 165.69-4.25 172.84-26.1 176.99-26.1 177.54-25.3 169.04 0 161.49 0ZM183.68 0L181.38-1.7 181.38-4.25 192.93-4.25Q195.88-4.25 195.88-7.25L195.88-7.25Q195.88-10.35 193.48-10.75L193.48-10.75 187.73-11.7Q181.38-12.8 181.38-18.7L181.38-18.7Q181.38-26.1 189.08-26.1L189.08-26.1 197.23-26.1 199.53-24.4 199.53-21.85 189.18-21.85Q186.18-21.85 186.18-18.85L186.18-18.85Q186.18-16.05 188.68-15.6L188.68-15.6 194.48-14.65Q200.73-13.6 200.73-7.45L200.73-7.45Q200.73 0 192.98 0L192.98 0 183.68 0ZM239.08 0L225.78 0Q218.08 0 218.08-7.65 218.08-15.3 225.78-15.3L225.78-15.3 234.23-15.3 234.23-18.95Q234.23-21.85 231.33-21.85L231.33-21.85 220.63-21.85 220.63-24.4 222.93-26.1 231.43-26.1Q239.08-26.1 239.08-18.45L239.08-18.45 239.08 0ZM222.93-8.55L222.93-7.2Q222.93-4.25 225.88-4.25L225.88-4.25 234.23-4.25 234.23-11.5 225.88-11.5Q222.93-11.5 222.93-8.55L222.93-8.55ZM251.53 0L246.68 0 246.68-26.1 260.83-26.1Q268.48-26.1 268.48-18.45L268.48-18.45 268.48 0 263.63 0 263.63-18.95Q263.63-21.85 260.73-21.85L260.73-21.85 251.53-21.85 251.53 0ZM275.67-7.7L275.67-7.7 275.67-18.45Q275.67-26.1 283.32-26.1L283.32-26.1 292.62-26.1 292.62-37 297.47-37 297.47 0 283.32 0Q275.67 0 275.67-7.7ZM280.52-18.95L280.52-7.2Q280.52-4.25 283.47-4.25L283.47-4.25 292.62-4.25 292.62-21.85 283.47-21.85Q280.52-21.85 280.52-18.95L280.52-18.95ZM317.27-7.9L317.27-7.9 317.27-26.6Q317.27-34.5 325.12-34.5L325.12-34.5 336.72-34.5Q344.57-34.5 344.57-26.6L344.57-26.6 344.57-7.85Q344.57-0.9 338.32-0.2L338.32-0.2 341.67 6.35 341.07 7.5 336.72 7.5 332.92 0 325.12 0Q317.27 0 317.27-7.9ZM322.32-27.1L322.32-7.4Q322.32-4.6 325.17-4.6L325.17-4.6 336.67-4.6Q339.52-4.6 339.52-7.4L339.52-7.4 339.52-27.1Q339.52-29.9 336.67-29.9L336.67-29.9 325.17-29.9Q322.32-29.9 322.32-27.1L322.32-27.1ZM350.12 0L349.42-1.05 360.47-34.5 368.52-34.5 379.52-1.05 378.87 0 374.62 0 372.02-8.2 356.97-8.2 354.32 0 350.12 0ZM363.97-29.9L358.42-12.8 370.57-12.8 365.02-29.9 363.97-29.9ZM385.66 0L383.36-1.7 383.36-4.25 394.91-4.25Q397.86-4.25 397.86-7.25L397.86-7.25Q397.86-10.35 395.46-10.75L395.46-10.75 389.71-11.7Q383.36-12.8 383.36-18.7L383.36-18.7Q383.36-26.1 391.06-26.1L391.06-26.1 399.21-26.1 401.51-24.4 401.51-21.85 391.16-21.85Q388.16-21.85 388.16-18.85L388.16-18.85Q388.16-16.05 390.66-15.6L390.66-15.6 396.46-14.65Q402.71-13.6 402.71-7.45L402.71-7.45Q402.71 0 394.96 0L394.96 0 385.66 0Z" opacity="1" transform="matrix(1,0,0,1,0,0)" fill="#89939e" class="undefined-text-1" data-fill-palette-color="secondary" id="text-1"></path></svg></g></svg></g></svg></g></svg></g><g><svg viewBox="0 0 128.27637749808633 128.27637749808633" height="128.27637749808633" width="128.27637749808633"><g><svg xmlns="http://www.w3.org/2000/svg" xmlns:xlink="http://www.w3.org/1999/xlink" version="1.1" x="0" y="0" viewBox="0.5000000000000002 0.5 71 71" enable-background="new 0 0 72 72" xml:space="preserve" height="128.27637749808633" width="128.27637749808633" class="icon-icon-0" data-fill-palette-color="accent" id="icon-0"><g fill="#89939e" data-fill-palette-color="accent"><g fill="#89939e" data-fill-palette-color="accent"><g fill="#89939e" data-fill-palette-color="accent"><path d="M48.4 38.1c-0.7 0-1.4-0.3-1.9-0.9-0.9-1-0.7-2.6 0.2-3.5l3.1-3.1c0.3-0.3 0.3-0.7 0-1l-3.1-3.1c-0.9-0.9-1.1-2.4-0.3-3.4 1-1.2 2.7-1.2 3.7-0.2l5.5 5.5c0.5 0.5 0.7 1.1 0.7 1.8 0 0.7-0.3 1.3-0.7 1.8l-5.5 5.5C49.6 37.9 49 38.1 48.4 38.1z" fill="#89939e" data-fill-palette-color="accent"></path></g><g fill="#89939e" data-fill-palette-color="accent"><path d="M23.6 38.1c-0.6 0-1.3-0.2-1.8-0.7L16.4 32c-0.5-0.5-0.7-1.1-0.7-1.8 0-0.7 0.3-1.3 0.7-1.8l5.4-5.4c0.9-0.9 2.4-1.1 3.4-0.3 1.2 1 1.2 2.7 0.2 3.7l-3.2 3.2c-0.3 0.3-0.3 0.7 0 1l3.1 3.1c0.9 0.9 1.1 2.5 0.2 3.5C25 37.8 24.3 38.1 23.6 38.1z" fill="#89939e" data-fill-palette-color="accent"></path></g></g><g fill="#89939e" data-fill-palette-color="accent"><path d="M32.7 41.9c-0.3 0-0.6 0-0.8-0.1-1.3-0.5-2-1.9-1.5-3.2l6.6-18.4c0.5-1.3 1.9-2 3.2-1.5 1.3 0.5 2 1.9 1.5 3.2l-6.6 18.4C34.7 41.2 33.7 41.9 32.7 41.9z" fill="#89939e" data-fill-palette-color="accent"></path></g><g fill="#89939e" data-fill-palette-color="accent"><path d="M69.8 0.5H2.2c-0.9 0-1.7 0.8-1.7 1.7v67.6c0 0.9 0.8 1.7 1.7 1.7h67.6c0.9 0 1.7-0.8 1.7-1.7V2.2C71.5 1.3 70.7 0.5 69.8 0.5zM25 4.5c1.2 0 2.1 0.9 2.1 2.1 0 1.2-0.9 2.1-2.1 2.1-1.2 0-2.1-0.9-2.1-2.1C22.9 5.4 23.8 4.5 25 4.5zM16.1 4.5c1.2 0 2.1 0.9 2.1 2.1 0 1.2-0.9 2.1-2.1 2.1C15 8.7 14 7.8 14 6.6 14 5.4 15 4.5 16.1 4.5zM7.3 4.5c1.2 0 2.1 0.9 2.1 2.1 0 1.2-0.9 2.1-2.1 2.1S5.2 7.8 5.2 6.6C5.2 5.4 6.1 4.5 7.3 4.5zM5.5 64.8V16.5c0-0.9 0.8-1.7 1.7-1.7h57.6c0.9 0 1.7 0.8 1.7 1.7V46c-0.1 0-0.1-0.1-0.2-0.1-0.4-0.1-0.6-0.5-0.6-0.8v-3.5c0-0.5-0.4-0.9-0.9-0.9H59c-0.5 0-0.9 0.4-0.9 0.9v3.5c0 0.4-0.3 0.7-0.6 0.8-0.8 0.2-1.5 0.6-2.2 0.9-0.3 0.2-0.8 0.1-1-0.1L52 44.5c-0.6-0.6-1.1-0.6-1.5-0.2l-4.1 4.1c-0.4 0.4-0.4 0.9 0 1.3l2.4 2.4c0.3 0.3 0.3 0.7 0.2 1-0.4 0.7-0.7 1.5-0.9 2.2C48 55.7 47.6 56 47.2 56l-3.5 0c-0.5 0-0.9 0.4-0.9 0.9v5.8c0 0.5 0.4 0.9 0.9 0.9h3.5c0.4 0 0.7 0.3 0.8 0.6 0.1 0.4 0.3 0.9 0.5 1.3 0.2 0.5-0.2 1.1-0.7 1.1H7.2C6.3 66.5 5.5 65.7 5.5 64.8zM64.8 66.5h-8.4c-0.3 0-0.6-0.1-0.8-0.3-1.9-1.9-3-4.7-2.6-7.7 0.5-3.9 3.7-7.1 7.6-7.7 2.2-0.3 4.3 0.1 6 1.2v12.8C66.5 65.7 65.7 66.5 64.8 66.5z" fill="#89939e" data-fill-palette-color="accent"></path></g></g></svg></g></svg></g></svg></g><defs></defs></svg><rect width="395.52" height="89.82629294177313" fill="none" stroke="none" visibility="hidden"></rect></g></svg></g></svg>