<?xml version="1.0" encoding="utf-8"?>
<!-- Generator: Adobe Illustrator 23.0.2, SVG Export Plug-In . SVG Version: 6.00 Build 0)  -->
<svg version="1.1" id="Layer_1" xmlns="http://www.w3.org/2000/svg" xmlns:xlink="http://www.w3.org/1999/xlink" x="0px" y="0px"
	 width="340px" height="340px" viewBox="0 0 340 340" style="enable-background:new 0 0 340 340;" xml:space="preserve">
<style type="text/css">
	.st0{fill:url(#background_1_);}
	.st1{fill:#A2A4A9;}
</style>
<linearGradient id="background_1_" gradientUnits="userSpaceOnUse" x1="170" y1="0" x2="170" y2="378">
	<stop  offset="0" style="stop-color:#F3F3F4"/>
	<stop  offset="1" style="stop-color:#DDE0E3"/>
</linearGradient>
<rect id="background" class="st0" width="340" height="378"/>
<path id="Male" class="st1" d="M0,317.7c0,0,38.7-4.5,56.3-15.1c17.6-10.6,48.8-30.5,51.3-32.6c4.9-4.1,1.5-23.1,1.5-23.1
	s-5.4-9.7-10.4-33.1c-2.7-12.9-23.6-29-25.7-49c-6.8-64.1,5-83.1,5-83.1s28.9-64.5,94.3-61.4c0,0,17.6,0,32,10.6
	c14.4,10.6,16.7,3.1,27.5,7.1c14.7,5.4,24.5,17.2,31.1,33.6c7.7,19,2.3,60.1,2.3,60.1s5.4-2.2,6.3,6.6c0.9,8.8-2,24.3-8.1,39.3
	c-7.7,19-26.2,44.6-26.2,52.1c0,11.1-3.4,33.7-1.4,36.2c3.8,4.8,12,9.1,20.7,17.7c10.8,10.7,42,28.7,83.4,40.6V378L0,377.4V317.7z"
	/>
</svg>
